<svg id="Component_40" data-name="Component 40" xmlns="http://www.w3.org/2000/svg" xmlns:xlink="http://www.w3.org/1999/xlink" width="139" height="31.838" viewBox="0 0 139 31.838">
  <defs>
    <clipPath id="clip-path">
      <rect id="Rectangle_419" data-name="Rectangle 419" width="138" height="31.838" fill="#6fe9ff"/>
    </clipPath>
    <clipPath id="clip-path-2">
      <rect id="Rectangle_378" data-name="Rectangle 378" width="138" height="31.838" fill="#3c3c3c"/>
    </clipPath>
  </defs>
  <g id="Group_196" data-name="Group 196" clip-path="url(#clip-path)">
    <path id="Path_200" data-name="Path 200" d="M69.258,26.184c-.032,0-.085-.044-.1-.079a.144.144,0,0,1,.031-.122c.092-.092.183-.043.284-.038,0-.676-.008-1.345-.032-1.991,0-.117,0-.235.005-.354a.417.417,0,0,1-.067.016,3.174,3.174,0,0,1-.56-1.453,1.882,1.882,0,0,1,.041-.442c.405.2.405.2.608.531.023.164.044.313.064.457a4.494,4.494,0,0,0,.023-1.075c-.581-.4-.979-.823-1.541-1.141-.331.053-.59.229-.916.312-.621,2.354-.182,5.863,0,7.893a5.808,5.808,0,0,0,.56,2.629l1.528,1.264c.219-.184.439-.14.673-.251.092-.014.19-.146.285-.343a18.52,18.52,0,0,1-.673-5.935.255.255,0,0,1-.219.121m.278-4.382-.026.041-.01-.048Zm-2.471,2.752a.368.368,0,0,1-.132-.043c-.032-.026-.07-.1-.057-.116a.309.309,0,0,1,.143-.116.14.14,0,0,1,.127.046.373.373,0,0,1,.046.186c0,.013-.083.028-.127.042M69.17,24.5a.218.218,0,0,1-.024.306c-.121-.112-.116-.214.024-.306m-1.465,3.589-.208-.359.164-.1a.285.285,0,0,1,.044.455m1.271-1.341a.684.684,0,0,1-.177.039l-.01.029-.071.048.049-.072.031,0a.737.737,0,0,1,.068-.17c.018-.028.078-.032.121-.036.014,0,.047.038.044.052-.01.042-.025.1-.055.115m1,5.479.01.038-.037-.01ZM69.544,29.1c.02.029.03.1.013.114-.071.057-.133.012-.159-.057-.012-.033.024-.085.038-.127.037.023.085.037.107.07m-1.862,1.018c-.011-.02-.034-.042-.033-.061.005-.086.018-.171.028-.257l.078,0a1.917,1.917,0,0,1,.007.248c0,.024-.053.045-.081.067M68.9,28.378l-.01.044-.038-.031Zm.213-1.051-.009.054-.039-.033Z" transform="translate(-30.901 -9.443)" fill="#6fe9ff"/>
    <path id="Path_201" data-name="Path 201" d="M61.976,35.313a1.342,1.342,0,0,1,.033.169,3.523,3.523,0,0,0,.136-.857l-.106.079Z" transform="translate(-28.678 -15.954)" fill="#6fe9ff"/>
    <path id="Path_202" data-name="Path 202" d="M50.23,24.331c-.07-.068-.1-.085-.1-.1.01-.418-.112-.827-.089-1.245,0-.042.052-.08.08-.121a.271.271,0,0,1,.348.1,1.713,1.713,0,0,0-.018-.177l.114-.249a15.43,15.43,0,0,0,.051-3.685A7.715,7.715,0,0,0,47.362,13a16.866,16.866,0,0,0-3.683-2.472l-2.086-.7a5.419,5.419,0,0,0-4.842,1.005.256.256,0,0,0,0,.029.328.328,0,0,1,.134.341c.328.46,1.142,1.022,1.282,1.231.311-.146.709-.068.949-.383l.035.017q-.032,2.185-.063,4.369a14.4,14.4,0,0,0,.294,3.586c-.116.024-.045,1.052-.046,1.229q.06,1.8.12,3.592c.112,1.1-.508,2.838.376,3.771a.038.038,0,0,1,.019-.006c.017,0,.048.038.044.05l0,.012a1.628,1.628,0,0,0,.26.2l-.479.3c.108.447.631.6.924.986a1.993,1.993,0,0,0,1.492.8c-.048-.1-.021-.129.095-.239,0-.01,0-.021,0-.031l.025,0,.053-.1.048.079-.1.019-.011.02-.016.015c-.006.076-.011.154-.018.244a4.184,4.184,0,0,0,1.564-.274c0-.052,0-.105-.006-.159-.007,0-.012-.009-.02-.012l0-.028c-.049-.033-.115-.064-.125-.107-.026-.111.048-.151.14-.163l0-.028.037-.014a.471.471,0,0,1,.065-.162c.029-.036.1-.037.185-.063-.045.167-.154.19-.25.224,0,.013-.008.026-.012.039l-.026,0-.016.27.018.012c0,.009,0,.019,0,.028a.164.164,0,0,1,.091.128,15.309,15.309,0,0,0,3.579-2.112,8.56,8.56,0,0,0,1.661-1.927l-.042-.009.033-.044.013.046a10.4,10.4,0,0,0,1.173-2.276M37.852,11.009l-.013-.05.042.008Zm.246.244a.752.752,0,0,1,.052-.123l.033.01c-.017.058-.035.115-.053.173-.012-.02-.037-.044-.033-.06m2.376.519.049-.012-.01.043ZM47.169,25.7a.351.351,0,0,1,.034.127c0,.026-.051.046-.079.068a.311.311,0,0,1-.032-.121c0-.028.05-.05.077-.074m-1.264,2.623c.008.022.016.043.024.064-.008.02-.016.041-.025.061a.659.659,0,0,1-.043-.093c0-.005.028-.021.044-.032M48.9,20.546a.355.355,0,0,1,.039.128c0,.023-.057.039-.088.059a.321.321,0,0,1-.032-.121c0-.025.051-.043.081-.066m-.672,1.317-.048.038.015-.088.033.05m.954-3.132-.01.047-.041-.033Zm.072-1.225a2.352,2.352,0,0,1,.172-.182l.162.258-.255.159c-.154-.057-.147-.142-.08-.234M49.1,15.546l.06.09-.077.078a.753.753,0,0,1-.033-.125c0-.012.033-.028.051-.042m-.716,1.668-.045-.028.052-.011Zm-9.073-1.291c-.139-.03-.22-.108-.186-.258.025-.112.131-.116.362-.023a.226.226,0,0,1-.176.281m1.849-3v-.178c.038.01.086.008.11.032a.334.334,0,0,1,.049.117l-.159.03m.358,2.156-.045-.087a.6.6,0,0,1,.12-.006c.015,0,.027.033.04.051l-.116.042m-1.333,4.792.2-.318c.084.367.064.4-.2.318m.354-.684.031-.032.013.043ZM40.3,20.292a.789.789,0,0,1,.15-.1s.047.044.044.047c-.038.054-.081.1-.129.165a.646.646,0,0,1-.064-.113M39.924,21.7c-.117-.125-.1-.22.04-.309l.139.171-.178.138m1.031-1.681a.564.564,0,0,1-.012-.181c.008-.026.078-.035.12-.051a.721.721,0,0,1,.041.177c0,.015-.078.03-.149.056m-1.13,4.27-.115-.465c.1-.04.2-.12.255-.1a1.649,1.649,0,0,1,.32.231c-.009.285-.129.391-.46.331m1.131-2.709c.008.194-.112.221-.265.205-.06-.278-.043-.291.265-.205m.1.82.033-.044.01.054Zm-.945,4.445c-.075-.5-.146-.957-.216-1.424l.426-.539a1.692,1.692,0,0,0,.343-.1,1.366,1.366,0,0,0,.269-.217c.308.207.308.207.246.57l-.457.049c-.039.118-.083.25-.128.389l.325,1.3c-.246.116-.486.025-.806-.029m.748,1.286-.035-.046a.669.669,0,0,1,.114-.03c.01,0,.024.031.036.048l-.115.028m1.1-1.428c-.01-.016-.031-.033-.028-.046s.026-.024.041-.036c.011.016.032.033.03.046s-.027.024-.042.036m-.825,2.457c.012-.092.025-.183.037-.274l.035,0c-.007.092-.014.184-.02.277l-.052-.005m2.079.153c.02-.125.077-.22.22-.161a.191.191,0,0,1,.054.177c-.084.121-.187.111-.274-.016M43.863,29c-.034-.006-.06-.052-.1-.094l.272-.114c.062.191.019.246-.168.209m.162.53c-.033.021-.086.01-.129.014.062-.166.062-.166.275-.156a.955.955,0,0,1-.145.142m1.219-2.69c0-.02.024-.037.037-.056-.007.041-.015.081-.023.122a.191.191,0,0,1-.014-.066m.534-.6a10.786,10.786,0,0,1-2.807,2.287l-.845.345-.142-.066a8.815,8.815,0,0,0,.148-1.448l-.089-.05a.283.283,0,0,1,.1-.221c.012-1.325-.154-2.734-.219-3.874a80.043,80.043,0,0,1-.086-11.469l.065-.142,1.527.436-.179-.192c.088-.117.119-.2.172-.22.167-.053.338-.071.45.113-.023.164-.14.226-.343.327l.349.1c.636.5,2.246.96,2.822,1.817a6.846,6.846,0,0,1,.6,1.113c.12-.067.166-.011.356.229l-.194.177c1.149,3.126.805,7.741-1.487,10.514,0,.013,0,.028-.006.041l-.038.011c-.048.058-.1.116-.145.171m-.271,1.82a1.106,1.106,0,0,1-.2-.064.334.334,0,0,1,.185-.493.433.433,0,0,1,.189.5c-.086.028-.133.058-.174.052m2.755-5.756h.055c0,.088.012.177.012.265,0,.067-.009.135-.014.2l-.088.009q.017-.239.035-.477m-2.559,7.1a.523.523,0,0,1-.1.013l-.005.017-.021,0c-.089.155-.265.114-.37.212-.041-.059-.068-.081-.065-.1a.694.694,0,0,1,.049-.121c.129-.075.257-.007.386.005a.112.112,0,0,0,.008-.013l.018,0,.028-.1.1.033c-.008.017-.014.045-.026.049m3.1-5.486c.019-.036.075-.052.114-.078.021.038.062.08.058.115-.011.079-.064.134-.147.081a.123.123,0,0,1-.026-.118m-.1.529a.133.133,0,0,1,.045-.121c.118-.033.153.052.177.141-.09.093-.17.086-.222-.02m1.818-3.187c-.136.139-.253.079-.417-.111l.283-.239c.183.173.217.267.135.35" transform="translate(-17.005 -4.458)" fill="#6fe9ff"/>
    <path id="Path_203" data-name="Path 203" d="M65.457,9.732l.56,1.6,1.137,1.084c.159-.031.1,0,.172-.094.158.194.182.313.331.5,0-.058,0-.117-.006-.175a2.164,2.164,0,0,1,.4-.114l0-.008.006.006a1.949,1.949,0,0,0,.489-.161C68.535,11,67.322,9.62,65.929,8.7a7.313,7.313,0,0,0-.935.259c.072.3.312.5.463.774m2.268,1.728c.016.046.046.09.04.129,0,.023-.06.04-.092.06a.322.322,0,0,1-.032-.123c0-.025.053-.044.084-.066m-.63-.841c.009,0,.031.029.046.045l-.064.027-.06-.022a.322.322,0,0,1,.078-.051M65.5,9.011a.814.814,0,0,1,.173.059l-.293.256a2.013,2.013,0,0,1,.12-.315" transform="translate(-30.074 -4.008)" fill="#6fe9ff"/>
    <path id="Path_204" data-name="Path 204" d="M19.195,23.039a6.593,6.593,0,0,0-.815-.849l-2.461.118a3.423,3.423,0,0,0,0-.911.932.932,0,0,1-.3.411c-.12-.263.042-.477.05-.7a.232.232,0,0,1,.215.04,3.986,3.986,0,0,1,0-1.788l3.03-.33.712-.147a.915.915,0,0,0,.489-.507l-.019-.052c-.522-.149-.759-.559-1.065-.853a.425.425,0,0,1-.052.038.642.642,0,0,1-.039-.119,1.009,1.009,0,0,0-.385-.207c-.9-.244-1.818.33-2.719.214q-.027-1.586-.054-3.173a11.245,11.245,0,0,0-1.563-1.281,2.292,2.292,0,0,0-.263.062.068.068,0,0,1,.03,0c.026.009.035.07.052.108-.034.025-.066.065-.1.071-.063.011-.113-.093-.066-.143a.132.132,0,0,1,.032-.022,4.979,4.979,0,0,1-.564.161c-.027,1.448-.15,2.837-.067,4.282a.457.457,0,0,1-.132.1.292.292,0,0,1-.235.37.446.446,0,0,1,0-.294,5.116,5.116,0,0,1-1.165-.019l-4.1.138c.072-.3.641-2.961.431-3.295A16.376,16.376,0,0,0,6.4,13.226a8.422,8.422,0,0,0-.793.325,12.679,12.679,0,0,1-.464,2.331q-.08,1.019-.159,2.04c-.225.317-.789.166-1.109.265-.567.176-1.559.171-2.209.32-.312.072-.534.339-.881.328.013.389.493.795,1,1.019l-.1.126a1.043,1.043,0,0,1,.574.437c.081-.02.165-.04.249-.059l-.02-.031a.394.394,0,0,1,.366-.044,11.736,11.736,0,0,1,2.066-.236q.007,1.534.016,3.069a22.008,22.008,0,0,0-3.515.27.3.3,0,0,1-.33.217c.053-.1.077-.147.131-.175a3.946,3.946,0,0,0-.878.3,1.9,1.9,0,0,0,.16.464c-.282.057-.217-.215-.41-.315-.033.024-.064.049-.093.074A4.626,4.626,0,0,0,1.395,25.41l.41-.067L1.8,25.331,2,25.058l.318-.037a.644.644,0,0,0,.013-.12c-.01-.14-.024-.28-.037-.42l-.021,0c0-.013,0-.028-.006-.04l-.048-.043c.015.006.036.009.042.02a.079.079,0,0,1,.006.023l.026.023,0,.021a.32.32,0,0,1,.245.223,4.059,4.059,0,0,1,.119.437l-.089.074,1.1-.181a1.676,1.676,0,0,0,.714.027l-.008-.027.239-.343.342-.009.176.384-.263.4L4.8,26.979c.06.307,1.351,1.328,1.553,1.491.119-.046.8-.149.8-.149.554-.381.356-2.789.429-3.383l3.023-.2c0-.021.008-.038.018-.043a.727.727,0,0,1,.2-.013c-.014.016-.025.03-.036.044l2.276-.152c-.015-.053-.038-.112-.073-.218.107.051.184.061.2.1a.369.369,0,0,1,.038.106l.154-.011q.021,1.411.042,2.823c.135.236.342.173.465.3.263.274.469.735.7.625.175.128.178.159.186.345.348.05.511-.155.818-.1.654-.549.363-3.3.367-4.187l2.056-.174,1.511-.3a1.111,1.111,0,0,1,.285-.343c-.1-.4-.3-.153-.628-.505m.188-4.545c-.132-.095-.21-.121-.223-.166-.046-.162-.069-.329-.122-.6.341.2.228.466.345.768m-2.2-.69-.057.013.01-.046ZM14.1,15.159c-.141-.169-.275-.344-.4-.507.012-.065.005-.126.032-.156a1.678,1.678,0,0,1,.194-.17c.262.03.356.2.459.386l-.149.477c-.055-.011-.112,0-.133-.029M1.584,18.635l.009-.041.033.028Zm-.029.775c-.051-.244-.051-.244.214-.2l-.214.2m1.411.2a.164.164,0,0,1,.049-.035c.01,0,.026.015.04.024,0,.014,0,.028-.005.042l-.083-.031m4.5-5.412c-.172.214-.172.214-.348.081.076-.2.212-.139.348-.081m-.628.429c.057.106.08.207-.035.292a.181.181,0,0,1,.035-.292m-.188-1.09c.258.081.259.093.206.361-.164-.074-.16-.233-.206-.361m-.617,2.08c-.109-.113-.073-.219.025-.317.235-.015.311.111.3.318a.2.2,0,0,1-.321,0M4.639,19.53a4.714,4.714,0,0,1,.338-.954l.262.51-.147.506a.3.3,0,0,1-.452-.062M7.093,15.5c.232-.062.282-.017.179.205L7.093,15.5M5.5,20.61l.013-.081.031.046L5.5,20.61m-4.431,3.9c-.032-.212.009-.329.144-.368.052-.015.126.045.211.08-.048.151-.092.288-.129.406-.152.056-.21-.017-.226-.119m.6.5.087-.242.142.059-.229.183m13.382-7.194a.588.588,0,0,1,.011.122c0,.015-.033.028-.051.042-.015-.039-.029-.077-.044-.116l.083-.048m.106-1.866a.227.227,0,0,1-.017.339c-.147-.123-.118-.232.017-.339m-1.073,2.4c-.014-.018-.042-.039-.039-.052a.7.7,0,0,1,.051-.119c.021.031.059.063.056.089s-.044.055-.068.083m-.295.063c.01.017.031.036.028.051s-.028.026-.044.039c-.01-.017-.03-.036-.027-.051s.028-.026.043-.039m-.115-.611.178.17c-.189.212-.189.212-.393.12-.02-.146.063-.222.215-.29m-1.649,1.643c-.023.011-.092-.025-.107-.056-.08-.158.028-.194.149-.216.1.111.09.208-.041.272m.256-1.009c.011.017.032.036.03.05s-.028.027-.044.04c-.01-.016-.031-.035-.029-.05s.027-.027.042-.04m-1.444.657c.016,0,.027.036.041.054l-.121.046-.039-.1a.591.591,0,0,1,.119,0M9.02,18.683l-.072.056-.03-.056h.1m-.139-.341a.573.573,0,0,1,.1.056l-.049.041-.1-.063c.017-.012.039-.038.05-.034m-.294-.513c.021-.034.079-.046.122-.069.113.065.192.141.1.28-.064.094-.145.109-.3.009a1.2,1.2,0,0,1,.081-.22m-.341.351c.015.053.029.106.044.159l-.1.024,0-.175.052-.008m-.673,1.038c.011.045.04.1.027.132s-.073.038-.112.056l-.071-.093.156-.094m-.8,1c.146.211.27.387.388.566.052.078.031.181-.064.405-.2,0-.186-.2-.283-.3s-.212-.194-.387-.351l.346-.321M6.312,22.24c0,.016,0,.147,0,.3-.173-.15.016-.285,0-.3M6.22,21.032a.935.935,0,0,1,.033.136c0,.013-.034.029-.052.044a.818.818,0,0,1-.038-.135c0-.012.037-.03.056-.045m-.46.415-.011.054-.04-.036ZM2.842,24.76a.2.2,0,0,1-.052-.042h.125c0,.013,0,.036-.007.038a.124.124,0,0,1-.066,0M4,24.77,3.832,24.4c.174-.133.3-.116.377.046a.247.247,0,0,1-.012.2c-.03.05-.11.069-.2.122m1.028,1.243-.074-.08a.683.683,0,0,1,.129-.027c.016,0,.033.031.05.048Zm.663-2.21a2.443,2.443,0,0,0-.43.111l-.275-.224a3.415,3.415,0,0,1-.367.049,2.272,2.272,0,0,1-.314-.02c-.062-.059-.1-.081-.095-.09.056-.16.117-.319.178-.481a1.466,1.466,0,0,1,.791.128,1.349,1.349,0,0,1,.666.372l.325-.051.044.239a3.718,3.718,0,0,0-.522-.033M6.513,25l.051-.008-.009.038Zm-.737,1.784.028-.042.007.051Zm-.012.909a.566.566,0,0,1,.019-.538c.345.13.347.13.24.558l-.258-.019m.489-1.634.057-.045a.621.621,0,0,1,.032.125c0,.015-.032.033-.05.05-.013-.043-.026-.087-.039-.13m1-1.529c-.133-.106-.141-.242-.064-.423a1.044,1.044,0,0,1,.465.521c-.175.1-.287-.008-.4-.1m-.279,2.6A.613.613,0,0,1,7,27.247c0,.014-.031.031-.048.046l-.036-.121.053-.043m-.43.155L6.5,27.3l.011-.049Zm1.345-2.645.041-.01-.009.037Zm1.167.17-.113-.06c.025-.024.05-.067.075-.067a.3.3,0,0,1,.111.049l-.073.078m.419-.739a.846.846,0,0,0-.029-.613c.034-.038.061-.095.1-.1a1.441,1.441,0,0,1,.282.016c-.062.263-.111.473-.158.675l-.19.022m.7.313a.736.736,0,0,1-.033-.123c0-.012.034-.028.052-.042a.778.778,0,0,1,.032.124c0,.012-.033.028-.051.042m-.021-1.619a.234.234,0,0,0,.093.08c-.2.025-.262.031-.326-.066l-1.082.066a3.087,3.087,0,0,1-1.342.115l.037-3.089c.217-.266.984-.194,1.3-.219l4.468-.185c.118.117.084.037.057.156a9,9,0,0,1,.064,1.172h.006a.326.326,0,0,1,0,.4,10.3,10.3,0,0,1-.042,1.372l-3.238.2m1.308.392c.041-.043.064-.09.1-.1.09-.019.116.051.112.12,0,.035-.044.068-.068.1l-.14-.125m-.2.889c-.01-.016-.028-.033-.026-.047s.026-.024.041-.037c.01.016.03.034.027.047s-.026.025-.041.037M12.8,23.4c-.013-.045-.041-.09-.033-.128s.055-.05.086-.074a.346.346,0,0,1,.033.13c0,.027-.055.047-.085.072m.172-.65.4-.174c-.014.189-.02.277-.026.36-.289.039-.289.039-.372-.185m2.77-5.037-.15-.113.091-.127a.844.844,0,0,1,.132.139c.009.013-.047.067-.074.1M15.689,18.9l.044,0c0,.061-.009.124-.013.185l-.044,0c0-.062.009-.124.014-.187m-1.131,2.619.053-.036c0,.029,0,.058-.007.1l-.046-.059m.968-1.99c-.039-.141.092-.145.151-.206.066.157.025.229-.151.206m-.256,1.05c-.01-.019-.032-.04-.028-.056s.031-.028.047-.041c.011.019.032.039.029.055s-.031.028-.048.042m-.653,1.954c.039.005.1.044.1.074s-.032.086-.052.13a.385.385,0,0,1-.123-.063.085.085,0,0,1,.071-.141M13.7,24.809l-.055-.019a.224.224,0,0,1,.068-.035c.014,0,.031.023.046.036Zm.727.372c-.178-.195-.026-.267.1-.376l.215.2-.315.18m.486,2.565.043.055-.059.115c-.015-.018-.046-.042-.042-.054a.687.687,0,0,1,.058-.116m.042-2.4c-.01-.043-.04-.094-.025-.125s.074-.042.113-.062l.069.105-.157.081M14.3,26.87c.005-.033.047-.061.073-.092.013.019.041.042.038.057a.758.758,0,0,1-.051.125c-.023-.032-.064-.065-.06-.09m2.359-4.115-.066-.137a.735.735,0,0,1,.167-.059c.013,0,.06.1.052.1a.9.9,0,0,1-.152.093M16.5,24.126c0-.008.025-.022.038-.034.006.02.013.041.02.061l-.024.059a.519.519,0,0,1-.034-.087m.667-.852c.006-.073.011-.146.016-.218l.06,0-.016.218-.06,0M17.522,23a.677.677,0,0,1,.01-.2c.009-.026.081-.03.125-.043a.732.732,0,0,1,.016.192c0,.019-.08.026-.15.047m.844.491.028-.037.006.047Zm.439-.143c.027-.151.052-.274.222-.314.282.233.121.522.123.891l-.345-.576" transform="translate(0 -5.965)" fill="#6fe9ff"/>
    <path id="Path_205" data-name="Path 205" d="M88.224,22.044a35.511,35.511,0,0,0,.027-5.982,4.139,4.139,0,0,1,.145-1.2l-.224-.031a.355.355,0,0,1,.288-.393.292.292,0,0,1,.027.024c.188-.815.381-1.648.168-2,0,0-1.576-1.193-1.631-1.226l-.194-.046a.741.741,0,0,1-.725.27q-.1.8-.209,1.6l0-.008.015.061-.026,0q-.114.882-.23,1.765.01,2.1.018,4.191-.308,3.071-.616,6.142l-.016.036c-1.548-1.173-2.7-3.934-3.666-5.51a.275.275,0,0,1-.34.148c-.088-.2-.1-.371.116-.5a11.844,11.844,0,0,0-3.677-3.531c-.126.162-.163.134-.308.2.013.064.027.128.041.191l-.017.036-.406-.144a15.833,15.833,0,0,0,.367,3.145q.131,1.829.262,3.657c0,.583-.071,1.253-.1,1.922.039-.014.087-.028.151-.045.1.183.042.295-.162.379a6.36,6.36,0,0,0,.114,1.5c.159.709,1.233,1.082,1.485,1.546.283-.042.416-.184.747-.13.428-.459.217-1.162.22-1.8.006-1.288.152-2.444.087-3.669q-.074-.918-.149-1.837l.035.017A27.763,27.763,0,0,0,83.6,25.866c.169.183.839.866,1.231,1.2a.379.379,0,0,1,.042-.081c.069-.1.16-.189.335-.391a.657.657,0,0,1-.194.616c.051.035.088.052.1.043,0,.018.918.977,1.257,1.01.377.037.354-.249.783-.114.827-.5.679-2.46.71-3.339q.181-1.383.362-2.766m-1.446-10.2-.04-.049a.646.646,0,0,1,.116-.03c.011,0,.026.031.039.049l-.116.03m-.392,2.531c-.016-.058-.041-.1-.034-.138s.053-.044.081-.065a.336.336,0,0,1,.026.119c0,.029-.044.052-.073.084m.9,1.827.045-.016-.011.049Zm-9.318.09L78,16.259l.012.047Zm-.374,1.32a.769.769,0,0,1,.061-.171c.038.02.107.038.109.061a.662.662,0,0,1-.039.181c-.061-.032-.133-.057-.131-.071m.65,1.213c.237.1.245.269.117.513-.271-.16-.218-.331-.117-.513M77.957,20.2l.049-.014L78,20.23Zm-.01.333a1.442,1.442,0,0,1,0,.868.982.982,0,0,1,0-.868m1.543-2.422c-.035,0-.077-.033-.136-.063l.14-.127c.022.032.062.065.061.1s-.038.09-.065.093m-1.313,4.737c-.034,0-.062-.048-.092-.074.019-.016.042-.046.056-.043a.768.768,0,0,1,.129.056c-.033.024-.066.066-.092.062m.621,4.967a.165.165,0,0,1-.162.015c-.088-.084-.026-.162.068-.254.127.081.177.155.095.239m.6-2.444c.325.218.209.575.281.9l-.822.7c-.164-.023-.178-.113-.156-.221.056-.268.111-.537.174-.8.069-.292.152-.38.523-.578m-1.011-.212c-.068-.186-.126-.346-.191-.525l.22-.2.191.143c-.019.2.1.455-.221.582m.1-1.27c.088-.015.179.19.121.28-.021.031-.082.036-.123.052a.169.169,0,0,1-.079-.238c.016-.038.049-.089.081-.095m-.46-.216s.04-.038.053-.033a.675.675,0,0,1,.115.058c-.063.039-.124.056-.168-.024m4.094-.743.2-.21c.013.239.013.239-.2.21m.534,1.3c-.013-.02-.038-.041-.037-.059s.031-.033.048-.05c.013.02.038.041.035.06s-.031.033-.047.049m.595.171c-.016-.037-.031-.074-.046-.111l.087-.043a.629.629,0,0,1,.012.118c0,.013-.035.024-.053.037m4.565-7.348c-.055-.034-.121-.056-.121-.078a.715.715,0,0,1,.046-.179c.054.03.141.051.151.091s-.047.108-.076.166m-.206,1.326-.011-.039.036.008ZM86.454,21.6c0-.053.008-.107.012-.161l.04,0-.012.16-.04,0m.7-1.178a.782.782,0,0,1,.134-.039c.014,0,.032.035.048.054-.019.016-.043.047-.057.044a.732.732,0,0,1-.125-.059m-3.266,5.522c-.021-.05-.064-.1-.053-.135.059-.178.132-.353.189-.5.21-.066.273.02.28.16a.4.4,0,0,1-.416.475m.733.057c.209.033.25.135.148.333-.136-.1-.2-.193-.148-.333m2.727-4.171.008-.051.047.033ZM86.8,23.447c-.012-.06-.02-.1-.028-.147l.266-.04-.238.188m-.843,2.967.009-.042L86,26.4Z" transform="translate(-35.516 -5.152)" fill="#6fe9ff"/>
    <path id="Path_206" data-name="Path 206" d="M196.146,8.833c.485.541.976.724,1.366,1.147a.817.817,0,0,1,.78-.2c.421-.763.336-2.456.409-3.434a14.843,14.843,0,0,0-1.651-1.277c-.164.114-.052.054-.194-.046-.118.246-.363.288-.673.251-.236.821-.452,3.1-.038,3.562m2.045-2.795a.208.208,0,0,1-.32-.032c.122-.137.222-.1.32.032m-1,1.4a.2.2,0,0,1,.019.309c-.145.031-.212-.065-.216-.181s.093-.142.2-.128m-.76-1.351,0-.042.255.019c0,.014,0,.028,0,.042l-.256-.019" transform="translate(-90.654 -2.313)" fill="#6fe9ff"/>
    <path id="Path_207" data-name="Path 207" d="M215.992,27.017a.859.859,0,0,1,.157.024c.04-.512.04-1.009.056-1.4q.148-2.572.3-5.145a.352.352,0,0,1-.164.1l-.169-.231c.124-.223.239-.155.346-.1q.056-.97.111-1.939c.088-.869.734-3.546.386-4.135-.524.023-1.1-.93-1.77-1.2a.793.793,0,0,0-.337.362l-.229-.062-.191.042c-.143,2.54-.71,4.74-.826,7.167-.069,1.443-.16,2.315-.171,3.759a8.509,8.509,0,0,1-.156,2.128,11.8,11.8,0,0,1-1.7-2.679,54.283,54.283,0,0,1-3.057-5.159c-.314-.731-.735-2.318-1.3-2.8-.16-.136-.377-.031-.585-.226a3.282,3.282,0,0,0-1.344-1.007c-.321.354-.457.151-.758.341q-.106.512-.21,1.024-.03.957-.059,1.914.176,4.5.353,9c.033,1.376-.362,2.175.028,2.938l.341.105c-.015.113-.026.2-.038.3l-.027-.011a4.189,4.189,0,0,0,.969.748,3.018,3.018,0,0,1,.8-.149c.895-1.528.5-4.459.376-5.994l0-2.719a6.23,6.23,0,0,1-.057-2.226c1.141,1.546,1.98,3.3,2.979,4.958.013-.012.027-.024.035-.021a.585.585,0,0,1,.106.056l-.055.038-.065-.037a17.408,17.408,0,0,0,1.572,2.235l.415-.06c.044.185.066.279.086.363-.057.056-.1.1-.136.13a9.519,9.519,0,0,0,1.779,1.8.362.362,0,0,1,.178-.145c-.008.107-.012.182-.018.246a2.272,2.272,0,0,0,.547.243c.336-.266.739-.126,1.049-.509a3.368,3.368,0,0,0,.582-1.71c-.037-.106-.073-.21-.124-.361m-.983-11.208.026-.032.009.04Zm-.348,3.161a1.862,1.862,0,0,1,1.114.052l.14.231c-.057.035-.112.084-.125.074-.262-.187-.571-.109-.856-.162-.083-.015-.084-.009-.273-.2m.3,1.826c-.015-.1-.02-.148-.026-.193a.343.343,0,0,1,.438-.127c.052.02.08.1.137.182l-.549.138M204.6,16.26a.638.638,0,0,1-.025-.125c0-.017.033-.034.052-.051l.068.113-.1.063m.64-.418c-.014-.017-.044-.039-.04-.051a.66.66,0,0,1,.052-.112.635.635,0,0,1,.034.118c0,.013-.03.03-.046.045m-.654,3.9c-.044,0-.1-.089-.116-.146a.572.572,0,0,1,.031-.2c.143.011.134.12.162.2s0,.154-.077.148m1.744-2c-.252.036-.322-.077-.323-.477.219-.127.371-.126.527.081l-.2.4m.217,11.472-.03.039-.015-.047Zm-.636.7-.038.014.007-.039Zm.035-.627c.019.255.019.255-.2.364-.094-.211,0-.314.2-.364m-.435-2.4-.167.163-.282-.151a.267.267,0,0,1,.046-.37.42.42,0,0,1,.4.359m.414-1.649c-.011-.02-.037-.049-.03-.06a1.569,1.569,0,0,1,.1-.149l.09.117-.158.092m.707-1.652c.136.219.02.286-.151.348-.011-.061-.046-.132-.024-.171a.878.878,0,0,1,.175-.177m-.818,1.02a.06.06,0,0,1,.056-.017c.1.046.138.109.05.205-.067-.049-.181-.066-.107-.189m-.493,1.162a.731.731,0,0,1,.114.057l-.057.042-.114-.064c.019-.012.043-.039.057-.035m.241-4.232a.1.1,0,0,1,.009-.065c0-.009.028-.009.044-.014,0,.022.018.045.013.064-.019.068-.047.073-.066.015m-.974,3c0-.058.006-.116.01-.173l.059.005c-.008.058-.014.116-.021.175a.314.314,0,0,1-.048-.007m1.853-2.31c.015.041.029.082.043.123l-.052.05a.767.767,0,0,1-.045-.128c0-.011.034-.03.053-.045m-.589.31-.179.13c-.049-.2.009-.229.179-.13m1.567-3.511-.357-.17.228-.231c.237.169.237.169.129.4m.912.176a.165.165,0,0,1-.014-.284c.128.088.117.182.014.284m-.013.434c-.005.009-.026.009-.04.012,0-.021-.017-.044-.011-.063.019-.066.048-.071.069-.011a.092.092,0,0,1-.018.061m.551.861c-.018-.042-.054-.085-.049-.123a.1.1,0,0,1,.163-.04.134.134,0,0,1,.009.122c-.022.029-.081.029-.123.041m.052.743-.031-.055.053-.1c.012.017.036.039.032.051a.612.612,0,0,1-.054.1m.726,1.812a.72.72,0,0,1,.054-.115l.031.01c-.017.053-.034.106-.051.16-.012-.018-.038-.041-.034-.055m1.537.052c-.016,0-.027-.033-.041-.052.018-.013.039-.039.054-.036s.028.033.041.051c-.018.013-.038.039-.054.037m-.076,1.161a.717.717,0,0,1-.031-.132c0-.015.034-.031.052-.047.014.019.045.044.041.058a.715.715,0,0,1-.062.121m1.755,2.568.009-.048.042.031Zm2.617-4.845c.015,0,.025.029.038.044l-.053.031-.038-.048c.017-.01.037-.031.052-.028M214.09,24.35l.03-.043.009.052Zm-.071.916a.8.8,0,0,1-.139-.126c-.009-.011.057-.1.063-.1a1.186,1.186,0,0,1,.159.1l-.084.127m-.2.72.028-.038.009.047Zm.583-1.308a.167.167,0,0,1,.034-.287c.167-.095.263,0,.312.16-.063.177-.192.177-.347.127m1.511-2.907a2.726,2.726,0,0,0,.259-.418c.061-.153.073-.326.141-.486a2.227,2.227,0,0,1-.056,1.084,1.7,1.7,0,0,1-.242-.077c-.041-.02-.068-.067-.1-.1m.033,1.271-.019,0-.012-.028a.717.717,0,0,1-.171-.066c-.024-.015-.017-.081-.023-.123.039.007.1,0,.113.023a.852.852,0,0,1,.081.167l.032.01c0,.007,0,.012,0,.019.087.009.144.043.121.146l.012,0c0,.009,0,.019,0,.029l.061.054c-.018,0-.045,0-.051-.013a.1.1,0,0,1-.011-.042l-.019-.016c0-.005,0-.01,0-.015-.1,0-.131-.058-.121-.146m-2,4.87c-.065-.112-.021-.229.119-.33.228.072.3.193.243.387-.141.1-.277.091-.363-.057m.125.8-.04-.064a.169.169,0,0,1,.007-.068c.011-.019.037-.029.056-.043a.694.694,0,0,1,.028.13c0,.014-.033.03-.052.045m1.956-2.113.034-.013-.008.039Z" transform="translate(-94.545 -5.988)" fill="#6fe9ff"/>
    <path id="Path_208" data-name="Path 208" d="M243.517,33.715a.245.245,0,0,1,.189-.29c.043-.3.076-.594.1-.887l-.086.059c-.24-.338-.242-.338-.072-.52.109.031.138.119.182.22.033-.342.066-.676.11-.989-.106-.071-.191-.159-.313-.108-.062-.178-.006-.252.106-.26a1.155,1.155,0,0,1,.258.031q.032-.2.063-.4c0-.04.006-.081.01-.124l.01.005q.147-.912.286-1.826c-.185-.111-.168-.175-.082-.5.056.02.105.038.148.056.337-2.25.637-4.507.88-6.78.024-.218.042-.435.06-.65-.084.027-.117.01-.258-.068.135-.205.16-.238.269-.086.051-.675.082-1.332.138-1.961l-.027.03c-.183-.073-.127-.182-.094-.285l-.012,0-.007-.016-.919-.068c.144-.4.169-.41.745-.359l.175.427.025,0-.005.016.144.024c.019-.189.041-.375.067-.558a.521.521,0,0,1-.152-.243.448.448,0,0,1,.239-.274c.006-.033.011-.066.018-.1-.132-.219-.608-.216-.748-.431-.17-.261-.547-.924-1-1.019-.037-.008-.076-.012-.114-.019l.015.023-.127.042-.061-.086.015-.006c-1.784-.26-4.216.446-5.681.755a5.27,5.27,0,0,0-2.129.616l-.106-.049c.377-1.785.762-4.308,1.879-5.731a.051.051,0,0,1-.009-.028c0-.03.046-.057.071-.085l.015.017a2.6,2.6,0,0,1,2.677-.924l.321-.327-.023-.14c-.135-.153-.4-.058-.6-.278-.349-.369-.466-.671-1.028-.947-.042,0-.082,0-.122-.006l.03.017-.06.048-.117-.069.016-.013a2.532,2.532,0,0,0-.8-.118,7.641,7.641,0,0,0-2.392,1.1c.032.091-.1.119-.169.181a6.509,6.509,0,0,0-1.69,2.758c-.517,2.908-1.37,6.485-.816,9.587.19,1.061-.032,2.3.619,3.347a7.259,7.259,0,0,0,2.539,2.247,7.89,7.89,0,0,0,3.237-.151.161.161,0,0,1-.032-.093l-.026-.007-.005-.015-.231.059a.33.33,0,0,1,.079-.477l.152.417.03-.008c0,.01,0,.019,0,.029l.174.044a.1.1,0,0,0,0,.012,5.368,5.368,0,0,0,1.576-.672c.006-.028.014-.059.023-.1a.526.526,0,0,1,.075.026,2.251,2.251,0,0,0,.6-.612l.035.017a15.093,15.093,0,0,1-.276,2.2,27.215,27.215,0,0,1-.513,3.646h.006c0,.054-.009.109-.012.163h-.018c-.015.094-.03.187-.042.28l-.329,1.66a.615.615,0,0,0,.1.273.1.1,0,0,1,.042-.005.181.181,0,0,1,.056.035l-.068.012,0,0c.267.369.867.6.966.967a.681.681,0,0,0,.314-.028c.033.116.066.231.1.347.381.086.439-.195.854-.081a4.834,4.834,0,0,0,.651-1.736.232.232,0,0,1-.106-.194m1.747-16.5c0,.06.008.121.011.181l-.056,0c0-.056,0-.113,0-.169,0,0,.029-.009.045-.014m-7.2-6.885c.018,0,.04.067.06.1l-.165.089-.07-.141a.715.715,0,0,1,.176-.051m-.812-.694c.006.13.011.241.016.376-.283-.18-.286-.225-.016-.376m-2.127,2.2-.017-.045.047.008Zm-1.179,3.36.031-.044.014.052Zm-.061,1.256c.053-.066.074-.113.1-.114a1.237,1.237,0,0,1,.2.028c0,.021,0,.043,0,.064l-.3.023m1.735-3.409.044.007-.028.038Zm1.223-2.83-.041,0,0-.037c-.067-.043-.1-.1-.014-.238.006.105.01.174.014.238l.028.017c0,.009.01.016.014.024l.358.04c0,.081,0,.122,0,.21-.135-.083-.278-.113-.354-.251m-.787,2.893.01-.042.033.03Zm-.727,1.728.024-.038.011.044Zm-1.545,4.8c-.264-.162-.2-.359-.087-.569.3.075.3.075.282.468l-.2.1m.408-.965c-.092-.139-.092-.139.278-.445.157.079.071.191.026.33l-.3.115m-.019,1.349c.017-.111.079-.182.19-.145a.186.186,0,0,1,.041.171c-.076.1-.162.062-.231-.027m-.7,2.119c-.016,0-.027-.032-.041-.05.019-.012.039-.036.056-.033s.027.033.041.051c-.019.012-.04.036-.056.033m1.845-3.819c-.16-.009-.223-.077-.236-.181-.015-.125-.008-.128.224-.356l.179.248-.167.29m-1.542,3.513.008-.04.029.026Zm-.36,1.005c-.01-.023-.018-.045-.027-.068.008-.021.016-.042.024-.064a.306.306,0,0,1,.049.08c0,.012-.03.034-.046.052m1.615-3.324c-.025-.024-.071-.049-.07-.072a.309.309,0,0,1,.052-.111l.074.075-.055.107m9.944-.24a.809.809,0,0,1,.115.056c-.016.013-.036.042-.047.039a.7.7,0,0,1-.114-.051c.016-.016.036-.047.046-.044m-1.728,3.606.022.012.007.024.09.038-.063.06c-.009-.033-.018-.065-.027-.1l-.023-.01-.006-.026-.079-.043.062-.046.018.089m1.635-5.928-.366,0c.142-.1.142-.1.366,0m-.939,1.406c.152.3.152.3-.091.5l.016.02-.02.012-.01.111.017.016,0,.02c.108.021.1.1.025.259-.012-.128-.019-.2-.025-.259l-.022,0c0-.01,0-.02,0-.031l-.07-.064.08-.047c0-.01,0-.02,0-.03v0l-.21-.257c.012-.2.153-.224.3-.24m0-.983c-.009.125-.017.236-.026.363-.224-.285-.224-.285.026-.363m-.2.655c-.019.01-.039.03-.055.027s-.03-.026-.045-.042c.018-.01.038-.029.055-.027s.03.027.045.042m-.32-.463c-.1.06-.209.1-.312,0,.137-.26.146-.26.312,0m-.306-1.026.014,0c0,.006,0,.013,0,.019l.1.064-.1.052c0,.012,0,.025,0,.038l-.049,0-.046.055c.008-.018.012-.044.025-.05a.07.07,0,0,1,.021,0l.023-.028.027-.014c0-.038,0-.077,0-.116l-.013-.009v-.013c-.064-.014-.143-.013-.181-.053a4.126,4.126,0,0,1-.291-.376c.461.06.467.062.472.43m-.627-.122-.042.013.008-.04Zm-1,.556c.116.083.118.169.013.263-.106-.083-.128-.169-.013-.263m-.178.756-.037-.026.044-.014Zm-3.692-.355c.042.02.083.046.125.07-.018.011-.039.034-.052.03a.757.757,0,0,1-.11-.056c.012-.015.032-.045.037-.043m-.226.435c0,.025,0,.051,0,.088l-.052-.056.05-.033M235.442,19.4l.009-.044.045.031Zm-1.758,5.007c-.175-.076-.23-.184-.189-.342a.19.19,0,0,1,.294.078c.048.084.03.183-.105.264m.836-2.529c.019-.016.041-.046.058-.044a.7.7,0,0,1,.129.042c-.026.029-.058.084-.073.079a.453.453,0,0,1-.114-.077m.012,2-.035-.139.054-.043a.774.774,0,0,1,.034.135c0,.013-.034.031-.053.046m-.088,1.036-.044-.059.064-.116c.013.019.042.044.038.058a.66.66,0,0,1-.058.117m-.225,1.23c-.017,0-.031-.029-.045-.043l.03-.049.066.053c-.017.014-.034.04-.051.039m.571.057-.115-.064c.024-.028.047-.077.073-.079s.073.032.11.05Zm1.962,1.06a.284.284,0,0,1,0-.03l-.1-.057c.11-.072.106-.006.1.057l.02.012.027.046-.048-.028m.048.028h0m1.068-.614c-.067-.018-.074-.049-.017-.073a.08.08,0,0,1,.063.011c.011.006.01.031.015.047-.021.005-.044.02-.062.015m.255-.759.025-.043.011.048Zm-.3,1.369-.061-.028a.583.583,0,0,1,.091-.043c.005,0,.021.029.032.045l-.062.025m.59-1.676.162-.15.076.061c-.019.052-.038.105-.057.157l-.181-.068m1.014,0c-.073-.036-.066-.068.016-.079.02,0,.043.014.064.022,0,.016,0,.043-.012.047a.088.088,0,0,1-.068.01m.2.923-.041-.055a.534.534,0,0,1,.112-.028c.015,0,.031.031.047.047l-.118.035m.574.032,0-.057.032.006Zm1.359-1.393a1.559,1.559,0,0,1-.229.161l-.122-.222a.336.336,0,0,1,.438-.159c.08.115-.034.162-.087.22m-.342-.951a.419.419,0,0,1-.117.259.289.289,0,0,1-.017-.373,1.893,1.893,0,0,0-.407-.26c-.259.193-.565.2-.809.36l-.876.977a4.277,4.277,0,0,1-3.038.628q-.149-.565-.3-1.13c-.009-.086-.017-.177-.026-.271l-.03.009-.045-.043.069-.019c-.013-.146-.028-.3-.044-.464h-.012c0-.033,0-.066,0-.1-.02-.214-.04-.439-.059-.672a.117.117,0,0,1-.048-.051.478.478,0,0,1,.028-.207,12.675,12.675,0,0,1,.118-3.724c.667.358,1.468-.161,2.05-.349l.233-.073a.779.779,0,0,1-.549-.473c-.009-.02.049-.072.077-.108.024,0,.057-.015.072,0,.21.162.419.324.622.494a.037.037,0,0,1,.011.019c.233-.07.5-.148.8-.227l-.308-.169c.214-.032.35-.072.433.135a11.306,11.306,0,0,1,3.824-.56,42.919,42.919,0,0,0-.567,4.435h.012a.261.261,0,0,1-.043.393h-.011c-.017.16-.035.319-.053.475s-.023.291-.025.433a.7.7,0,0,0,.055.085l-.057.03a2.8,2.8,0,0,1-.2,1.161,4.091,4.091,0,0,1-.768-.617M242.368,24c-.057-.017-.114-.036-.171-.056.02-.014.044-.043.062-.039a.7.7,0,0,1,.128.048c-.007.016-.018.047-.019.047m1.915-4.292.242-.023a.243.243,0,0,0,.01-.024l.042-.021c.012-.022.024-.045.038-.065a.312.312,0,0,1,.047.023l-.085.043-.025.043-.027,0c-.036.084-.1.1-.242.023m-1.463,3.564.054-.042a.652.652,0,0,1,.032.12c0,.013-.033.029-.051.043-.012-.041-.024-.081-.035-.122m-.233,1.666a.263.263,0,0,1-.31-.2.276.276,0,0,1,.309-.233c.155.142.127.272,0,.434m.81-1.115-.105-.39c.2-.121.26.012.311.193l-.206.2m.565.985c-.12.043-.172-.031-.189-.14.087-.066.177-.1.241.017a.138.138,0,0,1-.052.123m.2-.525c.009.006-.03.081-.051.139l-.192-.24a1.444,1.444,0,0,1,.243.1m.109-1.865.01.046-.039-.009Zm-.2.833c-.022-.064-.045-.128-.065-.189.085-.069.162-.148.241-.02.064.1.035.136-.176.209m-2.485,6.691.04-.01-.009.036Zm1.29-2.561a.684.684,0,0,0,.073-.281,5.6,5.6,0,0,1,.143-1.3.273.273,0,0,1,.153.3c-.065.458-.156.913-.239,1.37-.115.052-.187.067-.13-.1M241.8,30.71c.017-.01.037-.03.052-.027s.026.029.039.044c-.017.01-.037.031-.052.028s-.026-.029-.038-.045m-.842,2.272c-.088-.058-.093-.145.012-.24l.211.21c-.111.017-.186.054-.223.03m2.4-4.384c-.068.066-.141.144-.243.073a.178.178,0,0,1-.047-.254c.033-.052.108-.077.184-.128l.161.217a.51.51,0,0,1-.054.092m-2.043,4.957.036-.014-.009.04Zm.911-.07.034-.045.014.056Zm-.363,1.034.009-.046.039.031Zm1.929-4.719c.129.01.205,0,.218.02a.58.58,0,0,1,.02.21l-.238-.23m-.807,4.73c0,.011-.034.027-.054.04a.765.765,0,0,1-.038-.13c0-.011.035-.028.054-.043a.919.919,0,0,1,.037.133m.611-1.766a.124.124,0,0,1,.038.11c-.012.034-.064.053-.1.079-.023-.031-.063-.061-.067-.094-.01-.079.071-.138.127-.094m-.786,1.01c-.009-.006.031-.078.054-.135l.186.242a1.445,1.445,0,0,1-.24-.107m-.247.936.4.295c-.32.119-.355.1-.4-.295" transform="translate(-107.713 -3.905)" fill="#6fe9ff"/>
    <path id="Path_209" data-name="Path 209" d="M196.364,25.319c.01-.112.021-.223.033-.333l-.121-.02-.306.224c-.314-.218-.314-.218-.182-.514l.47.12a1.631,1.631,0,0,0,.165-.051,19.6,19.6,0,0,0,.206-2.45,8.547,8.547,0,0,1-1.525-1.177l-.262.009c-.157.043-.24.145-.337.362-.133-.065-.065-.018-.161-.117l-.13.049a1.116,1.116,0,0,1,.073.212c-.066.1-.11.216-.177.314-.077.738-.306,1.53-.394,2.586-.2,2.456-.394,4.483-.505,6.841l-.126,3.565a2.7,2.7,0,0,0,.926.925.233.233,0,0,1,.173.126,3.492,3.492,0,0,1,.415.336l.125.1c.309-.036.386-.239.8-.15.645-1.432.181-3.036.322-4.466q.259-3.245.517-6.49m-2.283-2.41.028-.033.012.043Zm1.083-1.37-.058-.088c.039-.014.081-.042.116-.036s.039.057.059.087l-.117.037m-.306,1.275a.208.208,0,0,1,.022-.3c.134.112.113.211-.022.3m-.718,3.453c-.011-.016-.032-.034-.029-.046s.028-.023.044-.034c.01.016.031.034.029.047s-.028.023-.044.033m.743-1.933c-.025-.012-.04-.084-.03-.12a.109.109,0,0,1,.1-.049c.037.012.064.057.089.093.012.017.01.044.02.1a.538.538,0,0,1-.176-.019m1.448-1.551.029-.039.012.048Zm-1,3.35c.273-.1.389.031.5.233a.393.393,0,0,1-.5-.233m.7,1.04c-.01-.016-.031-.035-.029-.049s.028-.025.043-.038c.01.017.03.035.028.05s-.027.025-.042.037m-.252,1.331c-.012-.017-.04-.041-.037-.049.033-.059.066-.056.083.01,0,.008-.03.025-.047.038m-.1-.494c.152-.193.3.073.424,0-.15.081-.291.119-.424,0m-2.318,6.464a.194.194,0,0,1,.047-.036c.009,0,.024.016.037.025l-.006.044-.078-.033m1.667-3.18c0-.015-.008-.03-.011-.045a.166.166,0,0,1,.062-.012c.019,0,.035.023.053.035l-.1.023" transform="translate(-89.346 -9.73)" fill="#6fe9ff"/>
    <path id="Path_210" data-name="Path 210" d="M138.838,27.607c-.08-.077-.083-.3-.134-.364a3.544,3.544,0,0,0-1.839-.635c.006.026.013.053.021.085l-.091-.1c-.52-.079-1.052-.128-1.474-.155-.005.025-.011.052-.018.082,0-.032-.005-.059-.008-.084-.272-.017-.5-.025-.64-.026a4.606,4.606,0,0,1-1.345.028q.089-2.309.178-4.619a6.877,6.877,0,0,1,1.811-.2l3.887-.324a4.678,4.678,0,0,0,1.592-.223l0,0,.009,0a.963.963,0,0,0,.405-.49c-.737-.438-.958-.854-1.615-1.261-1.219.189-2.563.13-4.01.311a5.987,5.987,0,0,1-2.023.1,5.887,5.887,0,0,0,.063-1.293c-.017.015-.035.027-.044.024a.769.769,0,0,1-.173-.111l.165-.124c.014.022.029.043.044.064a9.966,9.966,0,0,1-.017-2.6l1.685-.3,3.292-.339c.755-.079,1.567.065,2.132-.528,0-.017-1.449-1.26-1.653-1.365-3.124.254-6.506.1-9.138,1.658a3.121,3.121,0,0,0,.725.912c.021-.038.058-.1.142-.237l-.1.275a2.108,2.108,0,0,0,.426.291,9.638,9.638,0,0,0-.1,1.4,3.48,3.48,0,0,1,.146.32c.013.035-.022.087-.046.169l-.089-.05a6.516,6.516,0,0,0,.109.934c.015.076-.179.78-.207,1.112l-.148,4.46c-.024.8-.333,2.216.075,2.752l.845.691a2.517,2.517,0,0,0,.651.644l2.2-.109a17.777,17.777,0,0,1,3.132.105l.972.318c.354.043.564-.216.922-.136l.234-.324c0-.042.009-.083.013-.123-.19-.252-.629-.3-.964-.616m.654-6.786-.033.043-.013-.053Zm-1.406-7.049c.012-.012.047,0,.11,0,0,.168,0,.337.007.506l.022.041c0,.015,0,.03,0,.045.1.138.095.161-.006.505,0-.238,0-.377.006-.505-.006-.01-.012-.018-.021-.029v-.057L138,13.9a.889.889,0,0,1,.09-.128m-.637-.268c.075.123.16.2.161.277,0,.257-.017.514-.03.772a.245.245,0,0,1,.02.02c0,.01.006.02.01.029l.237.043c-.154.082-.206.037-.237-.043l-.033-.006c0-.015,0-.029,0-.044-.03-.029-.064-.056-.069-.088a1.81,1.81,0,0,0-.159-.713c-.021-.035.046-.122.1-.247m-3.066.915c.011.018.034.039.031.052a.712.712,0,0,1-.05.109c-.019-.032-.052-.064-.051-.1s.045-.044.07-.066M131.2,18.588l.008-.044.049.031Zm1.7-3.079.052-.02-.009.054Zm-1.233,3.881c-.046-.018-.067-.1-.1-.153.052-.031.108-.092.153-.084s.078.085.135.155c-.083.039-.15.1-.189.081m1.36-1.142.027-.036.011.044Zm-.249,2.116a.779.779,0,0,1-.054-.174c0-.014.1-.058.109-.049a.859.859,0,0,1,.089.161l-.143.062m.029.563.058-.143.182.231-.24-.087M132.3,27.49l-.018-.009a.1.1,0,0,1,0-.026l-.078-.043c.091-.062.08,0,.078.043l.019.011a.124.124,0,0,1,0,.025l.081.043c-.095.067-.084.007-.081-.043m.8-.051a.165.165,0,0,1-.085-.308c.071-.036.174.06.164.165-.005.054-.055.1-.079.143m1.794-.323.287-.249-.107.324-.179-.074m3.264,1.344-.009-.049.038.008Z" transform="translate(-60.108 -6.066)" fill="#6fe9ff"/>
    <path id="Path_211" data-name="Path 211" d="M177.3,24.246c-.011-.012-.022-.025-.033-.039l.039,0c.16-.929.351-1.882.539-2.829-.027.01-.059.012-.088.02,0-.045-.006-.087-.01-.129l.12-.005c.2-1.029.4-2.047.53-3.01l-.081.072c-.035-.046-.1-.094-.1-.138a.106.106,0,0,1,.148-.1.125.125,0,0,1,.048.042c.163-1.162.573-3.221.048-4.01l-.567-.262c-.37-.325-.635-.661-.977-.967-.309.067-.558.28-.883.24-.206.243.015,1.789-.011,2.281q-.047.431-.094.862l-.542,2.6q-.261,1.368-.521,2.736-.358,2.617-.716,5.234l-.016.035-.107-.049-.6-1.013-.059.021-.041-.06.064-.021c-1.047-1.771-2.077-3.542-3.033-5.35l-.166.073c-.02-.1-.032-.162-.05-.254l.126.009c-.072-.137-.145-.273-.216-.41-.587-1.133-1.354-3.28-2.167-4.189a8.329,8.329,0,0,0-1.877-1.252c-.141.046-.169.235-.305.291-.1.04-.319-.05-.42-.021a14.752,14.752,0,0,1,.307,1.92l.053,0c.015,0,.053.091.039.113a.314.314,0,0,1-.08.078c.006.123.01.246.009.37q-.01.729-.021,1.456c.193.932,0,2.14.217,2.817l-.068.055q-.027.764-.054,1.528.064,1.128.128,2.258a20.622,20.622,0,0,0,.126,3.766,2.8,2.8,0,0,0,.9.9.862.862,0,0,1,.256.04l-.085.084a2.025,2.025,0,0,1,.377.33c.255-.065.367-.219.7-.111.593-.815.318-1.956.307-2.835l-.1-6.644.049-.107c1.3,1.941,2.277,4.13,3.561,6.124.1.156.2.313.292.47a.471.471,0,0,1,.366.085l-.2.195.148.251a.074.074,0,0,1,.028,0,.2.2,0,0,1,.061.036l-.059.017a8.925,8.925,0,0,0,2.632,3.172,1.277,1.277,0,0,1,.834-.133c.842-.641.914-2.87.957-3.786a23.927,23.927,0,0,1,.343-2.855m-.859-5.432c-.059-.036-.054-.071.012-.091.007,0,.025.033.037.051-.017.014-.044.044-.049.039m-10.307-3.892a.134.134,0,0,1-.036,0l-.055.078c-.037-.091.011-.083.055-.078l.015-.022.058-.056-.037.078m-.3,2.3c.083-.074.158-.085.223.022-.082.074-.158.085-.223-.022m1.732-.956c.013,0,.029.029.044.044a.635.635,0,0,1-.117.031c-.013,0-.028-.028-.044-.044a.71.71,0,0,1,.117-.031m-.489.794a.155.155,0,0,1,0-.133c.016-.033.089-.074.1-.064.054.035.119.087.13.142s-.036.127-.064.211a1.051,1.051,0,0,1-.165-.156m-.687,3.106.011-.054.041.037Zm.836-1.009,0-.043.167.012,0,.042-.167-.012m-.539,10.206-.05.038c-.013-.017-.037-.036-.035-.05s.031-.026.047-.039l.038.051m1.055-2.512-.009.049-.044-.033Zm-.619-.68c.018,0,.039.048.059.075-.017.012-.037.037-.048.033a.736.736,0,0,1-.109-.056c.033-.019.064-.051.1-.053m.644-3.673c.011.046.041.1.026.134s-.078.034-.121.05l-.067-.105.163-.079m-1.181-.79c-.011-.018-.033-.038-.03-.052s.031-.026.047-.038c.011.018.033.037.03.052s-.031.025-.047.038m.135.307c-.011-.018-.031-.037-.029-.053s.026-.029.041-.044c.011.018.031.037.028.053s-.026.029-.04.043m1.5-2.033c0-.013,0-.026,0-.04l.157.012,0,.039-.157-.011m1.954,1.723c.006-.035.045-.062.07-.093.014.018.042.04.039.054a.733.733,0,0,1-.049.123c-.023-.03-.065-.061-.061-.085m.616,2.42c-.012-.019-.039-.048-.033-.058.037-.066.069-.06.087.014l-.054.044m2.235,3.914.034-.045.015.055Zm3.137-7.184c.039,0,.093-.024.114-.006a.16.16,0,0,1,.039.12c0,.022-.055.038-.1.068l-.051-.182m-.246.923-.017-.05.05.01Zm-1.252,2.887c-.008-.02-.028-.049-.021-.059s.04-.028.061-.04a.17.17,0,0,1,.005.067c0,.014-.029.022-.045.033m1.234-1.537a.19.19,0,0,1-.06-.037.2.2,0,0,1,.071-.013c.021,0,.039.023.059.035a.216.216,0,0,1-.071.015m2.2-4.353c-.015,0-.026-.028-.04-.044.018-.011.035-.032.051-.03s.028.026.042.04c-.02.013-.039.035-.053.033m-4.02,9.951a.233.233,0,0,1-.325-.029.139.139,0,0,1-.016-.128.217.217,0,0,1,.32-.03.734.734,0,0,1,.074.087c-.033.062-.038.087-.054.1m.535-1.514.038.036-.049.019Zm2.137-4.283c-.082-.112-.115-.216.049-.272.027-.01.1.033.112.067.074.165-.026.2-.162.2m.422-.367c.006-.1.037-.194.161-.191.139,0,.224.069.2.225-.132.1-.257.131-.365-.033m-.762,2.69.033-.042.017.051Zm-.589,4c.016,0,.026.028.038.043-.017.011-.036.032-.05.029s-.025-.029-.037-.045c.017-.01.035-.03.049-.027m.755-2.306-.041-.058.063-.113c.013.019.042.042.038.054a.721.721,0,0,1-.06.116m-1.42,3.617a.721.721,0,0,1-.038-.21c0-.026.095-.071.109-.059a.722.722,0,0,1,.114.147l-.185.123m1.188-1.858-.031.046-.011-.056Z" transform="translate(-76.483 -5.941)" fill="#6fe9ff"/>
    <path id="Path_212" data-name="Path 212" d="M114.263,22.892c-.032.016-.071.025-.085.016-.1-.071-.091-.156,0-.237l0,0c-.029-.081-.059-.161-.088-.242l-.755-2.54a.051.051,0,0,1-.011.02c-.028.033-.082.043-.124.064-.035-.029-.083-.052-.1-.09-.028-.058.061-.145.131-.137a.121.121,0,0,1,.076.046l-.91-3.06a27.658,27.658,0,0,1-1.286-3.956,10.469,10.469,0,0,0,2.009-1.576l.9-1.311a5.832,5.832,0,0,0,.874-3.134c-.039-2.526-1.223-3.739-3.515-5.284L109.819.666,108.812.332,106.687,0l-2.512.137c-.3.037-.648.237-.974.156-.062.087-.128.02-.049.107-1.172.222-3.617.519-4.581,2.031a4.564,4.564,0,0,0,1.662,1.628c.255-.062.37-.22.7-.111.2-.23.133-.364.244-.535a3.141,3.141,0,0,1,2.049-.911l0,3.192a7.339,7.339,0,0,0-.052,2.089q-.1,1.355-.207,2.709c.019,1.046-.273,2.36-.147,3.425.108.918.156,1.874.2,2.837.015.018.041.039.038.051a.407.407,0,0,1-.032.067q.023.514.047,1.03c.014.027.028.056.045.082l-.04.006c0,.048,0,.1.007.145l.078,3.4q-.057.879-.116,1.758c.262.678,1.321.975,1.463,1.407.378.067.372-.219.8-.062a1.56,1.56,0,0,0,.335-.583l-.025.008-.006-.167h.051c0,.038,0,.074,0,.112a5.828,5.828,0,0,0,.092-1.839c-.042-1.312-.071-2.571-.133-3.828-.046-.012-.048-.056-.007-.134-.032-.615-.071-1.231-.125-1.852-.048-.56.176-1.914-.079-2.366l.082-.178.126.016c0-.03.009-.063.012-.1l.091.113a8.678,8.678,0,0,0,3.273-.357l.035.016q.55,1.71,1.1,3.419l.146.3-.042.025c.648,2.2,1.249,4.553,2.028,6.711a2.4,2.4,0,0,1,.312-.312.265.265,0,0,1,.224.317c-.012.17-.046.338-.077.548l-.226.069q.21.545.438,1.068c.2.448.949.875,1.105,1.156.224.08.121.037.262-.009l.241.413a2.189,2.189,0,0,0,.978-.541,29.906,29.906,0,0,0-1.25-3.771M114.1,9.431l-.028.045-.012-.052Zm.79-2.661-.032.047-.014-.055Zm-1.731,3.268c-.007.1-.013.172-.021.293-.09-.13-.126-.211.021-.293M104.734,24.2a.887.887,0,0,1-.134.136.737.737,0,0,1-.08-.113,1.462,1.462,0,0,1,.147-.122c.024.034.075.086.066.1m.582-1.684-.025.033-.01-.041Zm-.666-1.444c.011.017.032.035.03.05s-.027.024-.043.036c-.011-.016-.032-.035-.03-.049s.028-.025.044-.037m-.683,1.026.009.04-.035-.009Zm.582-3.251-.047.036-.034-.049.081.013m-.847.968-.009.051-.037-.033Zm-.487.762a.64.64,0,0,1-.012-.558c.148.21.069.365.012.558m9.719-15.95c.01.017.03.035.027.049s-.027.024-.042.036c-.01-.016-.03-.035-.027-.048s.027-.024.042-.037m-.811-1.408.015.044-.044-.009ZM107.461,1.5a.69.69,0,0,1,.118.056l-.01.031-.166-.05c.02-.013.044-.041.058-.037m-1.7-.6-.24-.229c.184-.209.261-.24.35-.143.115.123.038.223-.11.372M104.554,4.33c-.015,0-.039,0-.041-.008a.1.1,0,0,1-.005-.066c.033-.073.063-.068.071.011,0,.02-.016.042-.025.063m-.782,3.933a.512.512,0,0,1,.071-.551c.229,0,.257.175.294.361l-.365.19M104.9,5.248c.166.1.289.172.153.344-.174-.026-.211-.134-.153-.344m-1.662,6.294c-.011-.015-.038-.04-.034-.05.033-.065.066-.061.083.01,0,.009-.032.026-.049.04m2.253-1.476-.042-.053a.762.762,0,0,1,.121-.033c.012,0,.028.029.042.046l-.12.04m-1.064,3.641c.172-.174.327-.26.52-.109,0,.229-.129.349-.328.492l-.192-.382m.316,1.8-.063-.044,0-.016a.267.267,0,0,1-.292-.164.875.875,0,0,1,0-.844c.065-.005.134-.03.154-.009.064.068.173.177.154.23-.1.265.05.529-.016.788a.13.13,0,0,0,.015,0l.046.059m1.2-1.8c0-.064,0-.122,0-.18.036.009.083.008.105.031a.343.343,0,0,1,.048.115l-.158.033m.509-.176a.209.209,0,0,1-.015-.32l.153.062-.138.258m2.073-2.122c-.788.409-1.962.256-2.92.467l-.142-.065c.226-.209.141-1.446.164-1.865.112-2.015.077-3.765.009-5.473-.03-.765.394-1.857-.15-2.4l.016-.035a5.323,5.323,0,0,1,2.355-.121.375.375,0,0,1-.011-.146c.07-.079.15-.133.234-.031a.165.165,0,0,1,.017.207c.388.054.763.123,1.1.194l1.236.4,1.3.728c1.854,2.824-.891,6.941-3.206,8.141m1.76.257a.647.647,0,0,1,.048-.111l.027.009-.047.156c-.011-.018-.032-.039-.028-.053m-.365,1.1.009-.053.04.033Zm.648-1.036.053-.019-.01.055Zm1.051-2.37a.359.359,0,0,1,.067-.1c.012.018.037.037.034.053a.589.589,0,0,1-.034.112c-.025-.024-.071-.052-.067-.067m2.11-2.963c-.116.02-.143-.066-.16-.157.087-.074.164-.072.2.042.011.031-.021.111-.044.115m-2.869,9.96-.31-.139c0-.125,0-.24.006-.371.3-.156.433-.059.53.2l-.227.308m-.153,2.03a.238.238,0,0,1,.247-.19.131.131,0,0,1,0-.019l.037,0,.045-.045c-.007.014-.011.035-.022.04a.08.08,0,0,1-.023,0l-.021.021h-.012a.114.114,0,0,1,.006.051c-.042.208-.043.208-.254.139m1.961,4.8a.216.216,0,0,1-.174.072c-.046-.009-.076-.091-.129-.162.073-.045.121-.1.174-.1.089-.009.18.129.129.191m.676,2.373.008-.049.048.033Zm1.009.5c.138.037.265.026.358.18-.141.157-.27.246-.455.173-.014-.042-.049-.092-.037-.121a1.847,1.847,0,0,1,.134-.231" transform="translate(-45.611 0)" fill="#6fe9ff"/>
    <path id="Path_213" data-name="Path 213" d="M155.459,19.351c-.081-.621.053-1.273.023-1.93-.068-1.507-.04-2.666.021-4.088.036-.838.462-4,.025-4.473a.6.6,0,0,1,.2-.1.716.716,0,0,0-.062-.181c.07-.128.122-.274.307-.269a1.015,1.015,0,0,1,.085.4c.294-.011.62.036.864.017l.073-.006c.007-.093.013-.188.021-.289l.2.093-.1.185c1.245-.1,2.523-.257,3.716-.466L161,7.973l.013-.123c-.6-.374-1.134-.9-1.615-1.261-2.524.116-5.059.225-7.514.551l-1.988.12c-.681.125-1.35.454-2.009.541l-.049.107c.192.631.948.908,1.324,1.428a3.96,3.96,0,0,0,1.342-.026c-.019-.025-.038-.044-.035-.058s.033-.026.052-.039c0,.029,0,.058-.008.1.946-.117,2.084-.335,2.6-.351q-.114,2.109-.228,4.218a.187.187,0,0,1,.17.131.253.253,0,0,1-.183.273l-.009,0q-.048.889-.1,1.777a12.917,12.917,0,0,1-.023,2.965q.07,2.1.141,4.2.074,1.436.149,2.871a.55.55,0,0,0,.29.283c0-.017.011-.033.016-.05a.258.258,0,0,1,.041.078.733.733,0,0,1,.262.142,7.043,7.043,0,0,0,.979,1.054c.3-.013.4-.231.8-.149.49-.885.089-3.372-.008-4.4Zm3.667-12.493c0,.01,0,.02,0,.03l-.171-.023c0-.01,0-.019,0-.03l.171.023m-.461-.046,0,.049-.418-.031,0-.049.42.031m-4.219,1.682.039-.016-.009.044Zm.42-.506a.32.32,0,0,1-.395-.18l.169-.292.347.222c.045.166-.021.226-.121.25m.363.444-.037-.054.1.008-.063.047m-.6,3.063a.79.79,0,0,1-.107-.2c0-.032.045-.073.07-.111.05.035.129.062.143.108s-.051.1-.106.2m-.523,7.73a.688.688,0,0,1-.114-.058l.011-.031.158.052c-.019.013-.042.042-.055.037m.988-2.4c.146.145.146.145.111.327-.213-.154-.213-.154-.111-.327m-.98,6.608.01-.038.03.028Zm-.067.9-.016-.045.048.011Zm1.158.295a.91.91,0,0,1,.084.106,1.445,1.445,0,0,1-.17.1.248.248,0,0,1-.061-.09.649.649,0,0,1,.147-.115m-.941,1.64a.274.274,0,0,1,.091.108.355.355,0,0,1,.02.1.485.485,0,0,1-.181-.019c-.028-.015-.039-.092-.03-.134a.113.113,0,0,1,.1-.052" transform="translate(-68.41 -3.036)" fill="#6fe9ff"/>
  </g>
  <g id="Group_85" data-name="Group 85" transform="translate(1)" clip-path="url(#clip-path-2)">
    <path id="Path_98" data-name="Path 98" d="M69.258,26.184c-.032,0-.085-.044-.1-.079a.144.144,0,0,1,.031-.122c.092-.092.183-.043.284-.038,0-.676-.008-1.345-.032-1.991,0-.117,0-.235.005-.354a.417.417,0,0,1-.067.016,3.174,3.174,0,0,1-.56-1.453,1.882,1.882,0,0,1,.041-.442c.405.2.405.2.608.531.023.164.044.313.064.457a4.494,4.494,0,0,0,.023-1.075c-.581-.4-.979-.823-1.541-1.141-.331.053-.59.229-.916.312-.621,2.354-.182,5.863,0,7.893a5.808,5.808,0,0,0,.56,2.629l1.528,1.264c.219-.184.439-.14.673-.251.092-.014.19-.146.285-.343a18.52,18.52,0,0,1-.673-5.935.255.255,0,0,1-.219.121m.278-4.382-.026.041-.01-.048Zm-2.471,2.752a.368.368,0,0,1-.132-.043c-.032-.026-.07-.1-.057-.116a.309.309,0,0,1,.143-.116.14.14,0,0,1,.127.046.373.373,0,0,1,.046.186c0,.013-.083.028-.127.042M69.17,24.5a.218.218,0,0,1-.024.306c-.121-.112-.116-.214.024-.306m-1.465,3.589-.208-.359.164-.1a.285.285,0,0,1,.044.455m1.271-1.341a.684.684,0,0,1-.177.039l-.01.029-.071.048.049-.072.031,0a.737.737,0,0,1,.068-.17c.018-.028.078-.032.121-.036.014,0,.047.038.044.052-.01.042-.025.1-.055.115m1,5.479.01.038-.037-.01ZM69.544,29.1c.02.029.03.1.013.114-.071.057-.133.012-.159-.057-.012-.033.024-.085.038-.127.037.023.085.037.107.07m-1.862,1.018c-.011-.02-.034-.042-.033-.061.005-.086.018-.171.028-.257l.078,0a1.917,1.917,0,0,1,.007.248c0,.024-.053.045-.081.067M68.9,28.378l-.01.044-.038-.031Zm.213-1.051-.009.054-.039-.033Z" transform="translate(-30.901 -9.443)" fill="#3c3c3c"/>
    <path id="Path_99" data-name="Path 99" d="M61.976,35.313a1.342,1.342,0,0,1,.033.169,3.523,3.523,0,0,0,.136-.857l-.106.079Z" transform="translate(-28.678 -15.954)" fill="#fff"/>
    <path id="Path_100" data-name="Path 100" d="M50.23,24.331c-.07-.068-.1-.085-.1-.1.01-.418-.112-.827-.089-1.245,0-.042.052-.08.08-.121a.271.271,0,0,1,.348.1,1.713,1.713,0,0,0-.018-.177l.114-.249a15.43,15.43,0,0,0,.051-3.685A7.715,7.715,0,0,0,47.362,13a16.866,16.866,0,0,0-3.683-2.472l-2.086-.7a5.419,5.419,0,0,0-4.842,1.005.256.256,0,0,0,0,.029.328.328,0,0,1,.134.341c.328.46,1.142,1.022,1.282,1.231.311-.146.709-.068.949-.383l.035.017q-.032,2.185-.063,4.369a14.4,14.4,0,0,0,.294,3.586c-.116.024-.045,1.052-.046,1.229q.06,1.8.12,3.592c.112,1.1-.508,2.838.376,3.771a.038.038,0,0,1,.019-.006c.017,0,.048.038.044.05l0,.012a1.628,1.628,0,0,0,.26.2l-.479.3c.108.447.631.6.924.986a1.993,1.993,0,0,0,1.492.8c-.048-.1-.021-.129.095-.239,0-.01,0-.021,0-.031l.025,0,.053-.1.048.079-.1.019-.011.02-.016.015c-.006.076-.011.154-.018.244a4.184,4.184,0,0,0,1.564-.274c0-.052,0-.105-.006-.159-.007,0-.012-.009-.02-.012l0-.028c-.049-.033-.115-.064-.125-.107-.026-.111.048-.151.14-.163l0-.028.037-.014a.471.471,0,0,1,.065-.162c.029-.036.1-.037.185-.063-.045.167-.154.19-.25.224,0,.013-.008.026-.012.039l-.026,0-.016.27.018.012c0,.009,0,.019,0,.028a.164.164,0,0,1,.091.128,15.309,15.309,0,0,0,3.579-2.112,8.56,8.56,0,0,0,1.661-1.927l-.042-.009.033-.044.013.046a10.4,10.4,0,0,0,1.173-2.276M37.852,11.009l-.013-.05.042.008Zm.246.244a.752.752,0,0,1,.052-.123l.033.01c-.017.058-.035.115-.053.173-.012-.02-.037-.044-.033-.06m2.376.519.049-.012-.01.043ZM47.169,25.7a.351.351,0,0,1,.034.127c0,.026-.051.046-.079.068a.311.311,0,0,1-.032-.121c0-.028.05-.05.077-.074m-1.264,2.623c.008.022.016.043.024.064-.008.02-.016.041-.025.061a.659.659,0,0,1-.043-.093c0-.005.028-.021.044-.032M48.9,20.546a.355.355,0,0,1,.039.128c0,.023-.057.039-.088.059a.321.321,0,0,1-.032-.121c0-.025.051-.043.081-.066m-.672,1.317-.048.038.015-.088.033.05m.954-3.132-.01.047-.041-.033Zm.072-1.225a2.352,2.352,0,0,1,.172-.182l.162.258-.255.159c-.154-.057-.147-.142-.08-.234M49.1,15.546l.06.09-.077.078a.753.753,0,0,1-.033-.125c0-.012.033-.028.051-.042m-.716,1.668-.045-.028.052-.011Zm-9.073-1.291c-.139-.03-.22-.108-.186-.258.025-.112.131-.116.362-.023a.226.226,0,0,1-.176.281m1.849-3v-.178c.038.01.086.008.11.032a.334.334,0,0,1,.049.117l-.159.03m.358,2.156-.045-.087a.6.6,0,0,1,.12-.006c.015,0,.027.033.04.051l-.116.042m-1.333,4.792.2-.318c.084.367.064.4-.2.318m.354-.684.031-.032.013.043ZM40.3,20.292a.789.789,0,0,1,.15-.1s.047.044.044.047c-.038.054-.081.1-.129.165a.646.646,0,0,1-.064-.113M39.924,21.7c-.117-.125-.1-.22.04-.309l.139.171-.178.138m1.031-1.681a.564.564,0,0,1-.012-.181c.008-.026.078-.035.12-.051a.721.721,0,0,1,.041.177c0,.015-.078.03-.149.056m-1.13,4.27-.115-.465c.1-.04.2-.12.255-.1a1.649,1.649,0,0,1,.32.231c-.009.285-.129.391-.46.331m1.131-2.709c.008.194-.112.221-.265.205-.06-.278-.043-.291.265-.205m.1.82.033-.044.01.054Zm-.945,4.445c-.075-.5-.146-.957-.216-1.424l.426-.539a1.692,1.692,0,0,0,.343-.1,1.366,1.366,0,0,0,.269-.217c.308.207.308.207.246.57l-.457.049c-.039.118-.083.25-.128.389l.325,1.3c-.246.116-.486.025-.806-.029m.748,1.286-.035-.046a.669.669,0,0,1,.114-.03c.01,0,.024.031.036.048l-.115.028m1.1-1.428c-.01-.016-.031-.033-.028-.046s.026-.024.041-.036c.011.016.032.033.03.046s-.027.024-.042.036m-.825,2.457c.012-.092.025-.183.037-.274l.035,0c-.007.092-.014.184-.02.277l-.052-.005m2.079.153c.02-.125.077-.22.22-.161a.191.191,0,0,1,.054.177c-.084.121-.187.111-.274-.016M43.863,29c-.034-.006-.06-.052-.1-.094l.272-.114c.062.191.019.246-.168.209m.162.53c-.033.021-.086.01-.129.014.062-.166.062-.166.275-.156a.955.955,0,0,1-.145.142m1.219-2.69c0-.02.024-.037.037-.056-.007.041-.015.081-.023.122a.191.191,0,0,1-.014-.066m.534-.6a10.786,10.786,0,0,1-2.807,2.287l-.845.345-.142-.066a8.815,8.815,0,0,0,.148-1.448l-.089-.05a.283.283,0,0,1,.1-.221c.012-1.325-.154-2.734-.219-3.874a80.043,80.043,0,0,1-.086-11.469l.065-.142,1.527.436-.179-.192c.088-.117.119-.2.172-.22.167-.053.338-.071.45.113-.023.164-.14.226-.343.327l.349.1c.636.5,2.246.96,2.822,1.817a6.846,6.846,0,0,1,.6,1.113c.12-.067.166-.011.356.229l-.194.177c1.149,3.126.805,7.741-1.487,10.514,0,.013,0,.028-.006.041l-.038.011c-.048.058-.1.116-.145.171m-.271,1.82a1.106,1.106,0,0,1-.2-.064.334.334,0,0,1,.185-.493.433.433,0,0,1,.189.5c-.086.028-.133.058-.174.052m2.755-5.756h.055c0,.088.012.177.012.265,0,.067-.009.135-.014.2l-.088.009q.017-.239.035-.477m-2.559,7.1a.523.523,0,0,1-.1.013l-.005.017-.021,0c-.089.155-.265.114-.37.212-.041-.059-.068-.081-.065-.1a.694.694,0,0,1,.049-.121c.129-.075.257-.007.386.005a.112.112,0,0,0,.008-.013l.018,0,.028-.1.1.033c-.008.017-.014.045-.026.049m3.1-5.486c.019-.036.075-.052.114-.078.021.038.062.08.058.115-.011.079-.064.134-.147.081a.123.123,0,0,1-.026-.118m-.1.529a.133.133,0,0,1,.045-.121c.118-.033.153.052.177.141-.09.093-.17.086-.222-.02m1.818-3.187c-.136.139-.253.079-.417-.111l.283-.239c.183.173.217.267.135.35" transform="translate(-17.005 -4.458)" fill="#3c3c3c"/>
    <path id="Path_101" data-name="Path 101" d="M65.457,9.732l.56,1.6,1.137,1.084c.159-.031.1,0,.172-.094.158.194.182.313.331.5,0-.058,0-.117-.006-.175a2.164,2.164,0,0,1,.4-.114l0-.008.006.006a1.949,1.949,0,0,0,.489-.161C68.535,11,67.322,9.62,65.929,8.7a7.313,7.313,0,0,0-.935.259c.072.3.312.5.463.774m2.268,1.728c.016.046.046.09.04.129,0,.023-.06.04-.092.06a.322.322,0,0,1-.032-.123c0-.025.053-.044.084-.066m-.63-.841c.009,0,.031.029.046.045l-.064.027-.06-.022a.322.322,0,0,1,.078-.051M65.5,9.011a.814.814,0,0,1,.173.059l-.293.256a2.013,2.013,0,0,1,.12-.315" transform="translate(-30.074 -4.008)" fill="#3c3c3c"/>
    <path id="Path_102" data-name="Path 102" d="M19.195,23.039a6.593,6.593,0,0,0-.815-.849l-2.461.118a3.423,3.423,0,0,0,0-.911.932.932,0,0,1-.3.411c-.12-.263.042-.477.05-.7a.232.232,0,0,1,.215.04,3.986,3.986,0,0,1,0-1.788l3.03-.33.712-.147a.915.915,0,0,0,.489-.507l-.019-.052c-.522-.149-.759-.559-1.065-.853a.425.425,0,0,1-.052.038.642.642,0,0,1-.039-.119,1.009,1.009,0,0,0-.385-.207c-.9-.244-1.818.33-2.719.214q-.027-1.586-.054-3.173a11.245,11.245,0,0,0-1.563-1.281,2.292,2.292,0,0,0-.263.062.068.068,0,0,1,.03,0c.026.009.035.07.052.108-.034.025-.066.065-.1.071-.063.011-.113-.093-.066-.143a.132.132,0,0,1,.032-.022,4.979,4.979,0,0,1-.564.161c-.027,1.448-.15,2.837-.067,4.282a.457.457,0,0,1-.132.1.292.292,0,0,1-.235.37.446.446,0,0,1,0-.294,5.116,5.116,0,0,1-1.165-.019l-4.1.138c.072-.3.641-2.961.431-3.295A16.376,16.376,0,0,0,6.4,13.226a8.422,8.422,0,0,0-.793.325,12.679,12.679,0,0,1-.464,2.331q-.08,1.019-.159,2.04c-.225.317-.789.166-1.109.265-.567.176-1.559.171-2.209.32-.312.072-.534.339-.881.328.013.389.493.795,1,1.019l-.1.126a1.043,1.043,0,0,1,.574.437c.081-.02.165-.04.249-.059l-.02-.031a.394.394,0,0,1,.366-.044,11.736,11.736,0,0,1,2.066-.236q.007,1.534.016,3.069a22.008,22.008,0,0,0-3.515.27.3.3,0,0,1-.33.217c.053-.1.077-.147.131-.175a3.946,3.946,0,0,0-.878.3,1.9,1.9,0,0,0,.16.464c-.282.057-.217-.215-.41-.315-.033.024-.064.049-.093.074A4.626,4.626,0,0,0,1.395,25.41l.41-.067L1.8,25.331,2,25.058l.318-.037a.644.644,0,0,0,.013-.12c-.01-.14-.024-.28-.037-.42l-.021,0c0-.013,0-.028-.006-.04l-.048-.043c.015.006.036.009.042.02a.079.079,0,0,1,.006.023l.026.023,0,.021a.32.32,0,0,1,.245.223,4.059,4.059,0,0,1,.119.437l-.089.074,1.1-.181a1.676,1.676,0,0,0,.714.027l-.008-.027.239-.343.342-.009.176.384-.263.4L4.8,26.979c.06.307,1.351,1.328,1.553,1.491.119-.046.8-.149.8-.149.554-.381.356-2.789.429-3.383l3.023-.2c0-.021.008-.038.018-.043a.727.727,0,0,1,.2-.013c-.014.016-.025.03-.036.044l2.276-.152c-.015-.053-.038-.112-.073-.218.107.051.184.061.2.1a.369.369,0,0,1,.038.106l.154-.011q.021,1.411.042,2.823c.135.236.342.173.465.3.263.274.469.735.7.625.175.128.178.159.186.345.348.05.511-.155.818-.1.654-.549.363-3.3.367-4.187l2.056-.174,1.511-.3a1.111,1.111,0,0,1,.285-.343c-.1-.4-.3-.153-.628-.505m.188-4.545c-.132-.095-.21-.121-.223-.166-.046-.162-.069-.329-.122-.6.341.2.228.466.345.768m-2.2-.69-.057.013.01-.046ZM14.1,15.159c-.141-.169-.275-.344-.4-.507.012-.065.005-.126.032-.156a1.678,1.678,0,0,1,.194-.17c.262.03.356.2.459.386l-.149.477c-.055-.011-.112,0-.133-.029M1.584,18.635l.009-.041.033.028Zm-.029.775c-.051-.244-.051-.244.214-.2l-.214.2m1.411.2a.164.164,0,0,1,.049-.035c.01,0,.026.015.04.024,0,.014,0,.028-.005.042l-.083-.031m4.5-5.412c-.172.214-.172.214-.348.081.076-.2.212-.139.348-.081m-.628.429c.057.106.08.207-.035.292a.181.181,0,0,1,.035-.292m-.188-1.09c.258.081.259.093.206.361-.164-.074-.16-.233-.206-.361m-.617,2.08c-.109-.113-.073-.219.025-.317.235-.015.311.111.3.318a.2.2,0,0,1-.321,0M4.639,19.53a4.714,4.714,0,0,1,.338-.954l.262.51-.147.506a.3.3,0,0,1-.452-.062M7.093,15.5c.232-.062.282-.017.179.205L7.093,15.5M5.5,20.61l.013-.081.031.046L5.5,20.61m-4.431,3.9c-.032-.212.009-.329.144-.368.052-.015.126.045.211.08-.048.151-.092.288-.129.406-.152.056-.21-.017-.226-.119m.6.5.087-.242.142.059-.229.183m13.382-7.194a.588.588,0,0,1,.011.122c0,.015-.033.028-.051.042-.015-.039-.029-.077-.044-.116l.083-.048m.106-1.866a.227.227,0,0,1-.017.339c-.147-.123-.118-.232.017-.339m-1.073,2.4c-.014-.018-.042-.039-.039-.052a.7.7,0,0,1,.051-.119c.021.031.059.063.056.089s-.044.055-.068.083m-.295.063c.01.017.031.036.028.051s-.028.026-.044.039c-.01-.017-.03-.036-.027-.051s.028-.026.043-.039m-.115-.611.178.17c-.189.212-.189.212-.393.12-.02-.146.063-.222.215-.29m-1.649,1.643c-.023.011-.092-.025-.107-.056-.08-.158.028-.194.149-.216.1.111.09.208-.041.272m.256-1.009c.011.017.032.036.03.05s-.028.027-.044.04c-.01-.016-.031-.035-.029-.05s.027-.027.042-.04m-1.444.657c.016,0,.027.036.041.054l-.121.046-.039-.1a.591.591,0,0,1,.119,0M9.02,18.683l-.072.056-.03-.056h.1m-.139-.341a.573.573,0,0,1,.1.056l-.049.041-.1-.063c.017-.012.039-.038.05-.034m-.294-.513c.021-.034.079-.046.122-.069.113.065.192.141.1.28-.064.094-.145.109-.3.009a1.2,1.2,0,0,1,.081-.22m-.341.351c.015.053.029.106.044.159l-.1.024,0-.175.052-.008m-.673,1.038c.011.045.04.1.027.132s-.073.038-.112.056l-.071-.093.156-.094m-.8,1c.146.211.27.387.388.566.052.078.031.181-.064.405-.2,0-.186-.2-.283-.3s-.212-.194-.387-.351l.346-.321M6.312,22.24c0,.016,0,.147,0,.3-.173-.15.016-.285,0-.3M6.22,21.032a.935.935,0,0,1,.033.136c0,.013-.034.029-.052.044a.818.818,0,0,1-.038-.135c0-.012.037-.03.056-.045m-.46.415-.011.054-.04-.036ZM2.842,24.76a.2.2,0,0,1-.052-.042h.125c0,.013,0,.036-.007.038a.124.124,0,0,1-.066,0M4,24.77,3.832,24.4c.174-.133.3-.116.377.046a.247.247,0,0,1-.012.2c-.03.05-.11.069-.2.122m1.028,1.243-.074-.08a.683.683,0,0,1,.129-.027c.016,0,.033.031.05.048Zm.663-2.21a2.443,2.443,0,0,0-.43.111l-.275-.224a3.415,3.415,0,0,1-.367.049,2.272,2.272,0,0,1-.314-.02c-.062-.059-.1-.081-.095-.09.056-.16.117-.319.178-.481a1.466,1.466,0,0,1,.791.128,1.349,1.349,0,0,1,.666.372l.325-.051.044.239a3.718,3.718,0,0,0-.522-.033M6.513,25l.051-.008-.009.038Zm-.737,1.784.028-.042.007.051Zm-.012.909a.566.566,0,0,1,.019-.538c.345.13.347.13.24.558l-.258-.019m.489-1.634.057-.045a.621.621,0,0,1,.032.125c0,.015-.032.033-.05.05-.013-.043-.026-.087-.039-.13m1-1.529c-.133-.106-.141-.242-.064-.423a1.044,1.044,0,0,1,.465.521c-.175.1-.287-.008-.4-.1m-.279,2.6A.613.613,0,0,1,7,27.247c0,.014-.031.031-.048.046l-.036-.121.053-.043m-.43.155L6.5,27.3l.011-.049Zm1.345-2.645.041-.01-.009.037Zm1.167.17-.113-.06c.025-.024.05-.067.075-.067a.3.3,0,0,1,.111.049l-.073.078m.419-.739a.846.846,0,0,0-.029-.613c.034-.038.061-.095.1-.1a1.441,1.441,0,0,1,.282.016c-.062.263-.111.473-.158.675l-.19.022m.7.313a.736.736,0,0,1-.033-.123c0-.012.034-.028.052-.042a.778.778,0,0,1,.032.124c0,.012-.033.028-.051.042m-.021-1.619a.234.234,0,0,0,.093.08c-.2.025-.262.031-.326-.066l-1.082.066a3.087,3.087,0,0,1-1.342.115l.037-3.089c.217-.266.984-.194,1.3-.219l4.468-.185c.118.117.084.037.057.156a9,9,0,0,1,.064,1.172h.006a.326.326,0,0,1,0,.4,10.3,10.3,0,0,1-.042,1.372l-3.238.2m1.308.392c.041-.043.064-.09.1-.1.09-.019.116.051.112.12,0,.035-.044.068-.068.1l-.14-.125m-.2.889c-.01-.016-.028-.033-.026-.047s.026-.024.041-.037c.01.016.03.034.027.047s-.026.025-.041.037M12.8,23.4c-.013-.045-.041-.09-.033-.128s.055-.05.086-.074a.346.346,0,0,1,.033.13c0,.027-.055.047-.085.072m.172-.65.4-.174c-.014.189-.02.277-.026.36-.289.039-.289.039-.372-.185m2.77-5.037-.15-.113.091-.127a.844.844,0,0,1,.132.139c.009.013-.047.067-.074.1M15.689,18.9l.044,0c0,.061-.009.124-.013.185l-.044,0c0-.062.009-.124.014-.187m-1.131,2.619.053-.036c0,.029,0,.058-.007.1l-.046-.059m.968-1.99c-.039-.141.092-.145.151-.206.066.157.025.229-.151.206m-.256,1.05c-.01-.019-.032-.04-.028-.056s.031-.028.047-.041c.011.019.032.039.029.055s-.031.028-.048.042m-.653,1.954c.039.005.1.044.1.074s-.032.086-.052.13a.385.385,0,0,1-.123-.063.085.085,0,0,1,.071-.141M13.7,24.809l-.055-.019a.224.224,0,0,1,.068-.035c.014,0,.031.023.046.036Zm.727.372c-.178-.195-.026-.267.1-.376l.215.2-.315.18m.486,2.565.043.055-.059.115c-.015-.018-.046-.042-.042-.054a.687.687,0,0,1,.058-.116m.042-2.4c-.01-.043-.04-.094-.025-.125s.074-.042.113-.062l.069.105-.157.081M14.3,26.87c.005-.033.047-.061.073-.092.013.019.041.042.038.057a.758.758,0,0,1-.051.125c-.023-.032-.064-.065-.06-.09m2.359-4.115-.066-.137a.735.735,0,0,1,.167-.059c.013,0,.06.1.052.1a.9.9,0,0,1-.152.093M16.5,24.126c0-.008.025-.022.038-.034.006.02.013.041.02.061l-.024.059a.519.519,0,0,1-.034-.087m.667-.852c.006-.073.011-.146.016-.218l.06,0-.016.218-.06,0M17.522,23a.677.677,0,0,1,.01-.2c.009-.026.081-.03.125-.043a.732.732,0,0,1,.016.192c0,.019-.08.026-.15.047m.844.491.028-.037.006.047Zm.439-.143c.027-.151.052-.274.222-.314.282.233.121.522.123.891l-.345-.576" transform="translate(0 -5.965)" fill="#3c3c3c"/>
    <path id="Path_103" data-name="Path 103" d="M88.224,22.044a35.511,35.511,0,0,0,.027-5.982,4.139,4.139,0,0,1,.145-1.2l-.224-.031a.355.355,0,0,1,.288-.393.292.292,0,0,1,.027.024c.188-.815.381-1.648.168-2,0,0-1.576-1.193-1.631-1.226l-.194-.046a.741.741,0,0,1-.725.27q-.1.8-.209,1.6l0-.008.015.061-.026,0q-.114.882-.23,1.765.01,2.1.018,4.191-.308,3.071-.616,6.142l-.016.036c-1.548-1.173-2.7-3.934-3.666-5.51a.275.275,0,0,1-.34.148c-.088-.2-.1-.371.116-.5a11.844,11.844,0,0,0-3.677-3.531c-.126.162-.163.134-.308.2.013.064.027.128.041.191l-.017.036-.406-.144a15.833,15.833,0,0,0,.367,3.145q.131,1.829.262,3.657c0,.583-.071,1.253-.1,1.922.039-.014.087-.028.151-.045.1.183.042.295-.162.379a6.36,6.36,0,0,0,.114,1.5c.159.709,1.233,1.082,1.485,1.546.283-.042.416-.184.747-.13.428-.459.217-1.162.22-1.8.006-1.288.152-2.444.087-3.669q-.074-.918-.149-1.837l.035.017A27.763,27.763,0,0,0,83.6,25.866c.169.183.839.866,1.231,1.2a.379.379,0,0,1,.042-.081c.069-.1.16-.189.335-.391a.657.657,0,0,1-.194.616c.051.035.088.052.1.043,0,.018.918.977,1.257,1.01.377.037.354-.249.783-.114.827-.5.679-2.46.71-3.339q.181-1.383.362-2.766m-1.446-10.2-.04-.049a.646.646,0,0,1,.116-.03c.011,0,.026.031.039.049l-.116.03m-.392,2.531c-.016-.058-.041-.1-.034-.138s.053-.044.081-.065a.336.336,0,0,1,.026.119c0,.029-.044.052-.073.084m.9,1.827.045-.016-.011.049Zm-9.318.09L78,16.259l.012.047Zm-.374,1.32a.769.769,0,0,1,.061-.171c.038.02.107.038.109.061a.662.662,0,0,1-.039.181c-.061-.032-.133-.057-.131-.071m.65,1.213c.237.1.245.269.117.513-.271-.16-.218-.331-.117-.513M77.957,20.2l.049-.014L78,20.23Zm-.01.333a1.442,1.442,0,0,1,0,.868.982.982,0,0,1,0-.868m1.543-2.422c-.035,0-.077-.033-.136-.063l.14-.127c.022.032.062.065.061.1s-.038.09-.065.093m-1.313,4.737c-.034,0-.062-.048-.092-.074.019-.016.042-.046.056-.043a.768.768,0,0,1,.129.056c-.033.024-.066.066-.092.062m.621,4.967a.165.165,0,0,1-.162.015c-.088-.084-.026-.162.068-.254.127.081.177.155.095.239m.6-2.444c.325.218.209.575.281.9l-.822.7c-.164-.023-.178-.113-.156-.221.056-.268.111-.537.174-.8.069-.292.152-.38.523-.578m-1.011-.212c-.068-.186-.126-.346-.191-.525l.22-.2.191.143c-.019.2.1.455-.221.582m.1-1.27c.088-.015.179.19.121.28-.021.031-.082.036-.123.052a.169.169,0,0,1-.079-.238c.016-.038.049-.089.081-.095m-.46-.216s.04-.038.053-.033a.675.675,0,0,1,.115.058c-.063.039-.124.056-.168-.024m4.094-.743.2-.21c.013.239.013.239-.2.21m.534,1.3c-.013-.02-.038-.041-.037-.059s.031-.033.048-.05c.013.02.038.041.035.06s-.031.033-.047.049m.595.171c-.016-.037-.031-.074-.046-.111l.087-.043a.629.629,0,0,1,.012.118c0,.013-.035.024-.053.037m4.565-7.348c-.055-.034-.121-.056-.121-.078a.715.715,0,0,1,.046-.179c.054.03.141.051.151.091s-.047.108-.076.166m-.206,1.326-.011-.039.036.008ZM86.454,21.6c0-.053.008-.107.012-.161l.04,0-.012.16-.04,0m.7-1.178a.782.782,0,0,1,.134-.039c.014,0,.032.035.048.054-.019.016-.043.047-.057.044a.732.732,0,0,1-.125-.059m-3.266,5.522c-.021-.05-.064-.1-.053-.135.059-.178.132-.353.189-.5.21-.066.273.02.28.16a.4.4,0,0,1-.416.475m.733.057c.209.033.25.135.148.333-.136-.1-.2-.193-.148-.333m2.727-4.171.008-.051.047.033ZM86.8,23.447c-.012-.06-.02-.1-.028-.147l.266-.04-.238.188m-.843,2.967.009-.042L86,26.4Z" transform="translate(-35.516 -5.152)" fill="#3c3c3c"/>
    <path id="Path_104" data-name="Path 104" d="M196.146,8.833c.485.541.976.724,1.366,1.147a.817.817,0,0,1,.78-.2c.421-.763.336-2.456.409-3.434a14.843,14.843,0,0,0-1.651-1.277c-.164.114-.052.054-.194-.046-.118.246-.363.288-.673.251-.236.821-.452,3.1-.038,3.562m2.045-2.795a.208.208,0,0,1-.32-.032c.122-.137.222-.1.32.032m-1,1.4a.2.2,0,0,1,.019.309c-.145.031-.212-.065-.216-.181s.093-.142.2-.128m-.76-1.351,0-.042.255.019c0,.014,0,.028,0,.042l-.256-.019" transform="translate(-90.654 -2.313)" fill="#3c3c3c"/>
    <path id="Path_105" data-name="Path 105" d="M215.992,27.017a.859.859,0,0,1,.157.024c.04-.512.04-1.009.056-1.4q.148-2.572.3-5.145a.352.352,0,0,1-.164.1l-.169-.231c.124-.223.239-.155.346-.1q.056-.97.111-1.939c.088-.869.734-3.546.386-4.135-.524.023-1.1-.93-1.77-1.2a.793.793,0,0,0-.337.362l-.229-.062-.191.042c-.143,2.54-.71,4.74-.826,7.167-.069,1.443-.16,2.315-.171,3.759a8.509,8.509,0,0,1-.156,2.128,11.8,11.8,0,0,1-1.7-2.679,54.283,54.283,0,0,1-3.057-5.159c-.314-.731-.735-2.318-1.3-2.8-.16-.136-.377-.031-.585-.226a3.282,3.282,0,0,0-1.344-1.007c-.321.354-.457.151-.758.341q-.106.512-.21,1.024-.03.957-.059,1.914.176,4.5.353,9c.033,1.376-.362,2.175.028,2.938l.341.105c-.015.113-.026.2-.038.3l-.027-.011a4.189,4.189,0,0,0,.969.748,3.018,3.018,0,0,1,.8-.149c.895-1.528.5-4.459.376-5.994l0-2.719a6.23,6.23,0,0,1-.057-2.226c1.141,1.546,1.98,3.3,2.979,4.958.013-.012.027-.024.035-.021a.585.585,0,0,1,.106.056l-.055.038-.065-.037a17.408,17.408,0,0,0,1.572,2.235l.415-.06c.044.185.066.279.086.363-.057.056-.1.1-.136.13a9.519,9.519,0,0,0,1.779,1.8.362.362,0,0,1,.178-.145c-.008.107-.012.182-.018.246a2.272,2.272,0,0,0,.547.243c.336-.266.739-.126,1.049-.509a3.368,3.368,0,0,0,.582-1.71c-.037-.106-.073-.21-.124-.361m-.983-11.208.026-.032.009.04Zm-.348,3.161a1.862,1.862,0,0,1,1.114.052l.14.231c-.057.035-.112.084-.125.074-.262-.187-.571-.109-.856-.162-.083-.015-.084-.009-.273-.2m.3,1.826c-.015-.1-.02-.148-.026-.193a.343.343,0,0,1,.438-.127c.052.02.08.1.137.182l-.549.138M204.6,16.26a.638.638,0,0,1-.025-.125c0-.017.033-.034.052-.051l.068.113-.1.063m.64-.418c-.014-.017-.044-.039-.04-.051a.66.66,0,0,1,.052-.112.635.635,0,0,1,.034.118c0,.013-.03.03-.046.045m-.654,3.9c-.044,0-.1-.089-.116-.146a.572.572,0,0,1,.031-.2c.143.011.134.12.162.2s0,.154-.077.148m1.744-2c-.252.036-.322-.077-.323-.477.219-.127.371-.126.527.081l-.2.4m.217,11.472-.03.039-.015-.047Zm-.636.7-.038.014.007-.039Zm.035-.627c.019.255.019.255-.2.364-.094-.211,0-.314.2-.364m-.435-2.4-.167.163-.282-.151a.267.267,0,0,1,.046-.37.42.42,0,0,1,.4.359m.414-1.649c-.011-.02-.037-.049-.03-.06a1.569,1.569,0,0,1,.1-.149l.09.117-.158.092m.707-1.652c.136.219.02.286-.151.348-.011-.061-.046-.132-.024-.171a.878.878,0,0,1,.175-.177m-.818,1.02a.06.06,0,0,1,.056-.017c.1.046.138.109.05.205-.067-.049-.181-.066-.107-.189m-.493,1.162a.731.731,0,0,1,.114.057l-.057.042-.114-.064c.019-.012.043-.039.057-.035m.241-4.232a.1.1,0,0,1,.009-.065c0-.009.028-.009.044-.014,0,.022.018.045.013.064-.019.068-.047.073-.066.015m-.974,3c0-.058.006-.116.01-.173l.059.005c-.008.058-.014.116-.021.175a.314.314,0,0,1-.048-.007m1.853-2.31c.015.041.029.082.043.123l-.052.05a.767.767,0,0,1-.045-.128c0-.011.034-.03.053-.045m-.589.31-.179.13c-.049-.2.009-.229.179-.13m1.567-3.511-.357-.17.228-.231c.237.169.237.169.129.4m.912.176a.165.165,0,0,1-.014-.284c.128.088.117.182.014.284m-.013.434c-.005.009-.026.009-.04.012,0-.021-.017-.044-.011-.063.019-.066.048-.071.069-.011a.092.092,0,0,1-.018.061m.551.861c-.018-.042-.054-.085-.049-.123a.1.1,0,0,1,.163-.04.134.134,0,0,1,.009.122c-.022.029-.081.029-.123.041m.052.743-.031-.055.053-.1c.012.017.036.039.032.051a.612.612,0,0,1-.054.1m.726,1.812a.72.72,0,0,1,.054-.115l.031.01c-.017.053-.034.106-.051.16-.012-.018-.038-.041-.034-.055m1.537.052c-.016,0-.027-.033-.041-.052.018-.013.039-.039.054-.036s.028.033.041.051c-.018.013-.038.039-.054.037m-.076,1.161a.717.717,0,0,1-.031-.132c0-.015.034-.031.052-.047.014.019.045.044.041.058a.715.715,0,0,1-.062.121m1.755,2.568.009-.048.042.031Zm2.617-4.845c.015,0,.025.029.038.044l-.053.031-.038-.048c.017-.01.037-.031.052-.028M214.09,24.35l.03-.043.009.052Zm-.071.916a.8.8,0,0,1-.139-.126c-.009-.011.057-.1.063-.1a1.186,1.186,0,0,1,.159.1l-.084.127m-.2.72.028-.038.009.047Zm.583-1.308a.167.167,0,0,1,.034-.287c.167-.095.263,0,.312.16-.063.177-.192.177-.347.127m1.511-2.907a2.726,2.726,0,0,0,.259-.418c.061-.153.073-.326.141-.486a2.227,2.227,0,0,1-.056,1.084,1.7,1.7,0,0,1-.242-.077c-.041-.02-.068-.067-.1-.1m.033,1.271-.019,0-.012-.028a.717.717,0,0,1-.171-.066c-.024-.015-.017-.081-.023-.123.039.007.1,0,.113.023a.852.852,0,0,1,.081.167l.032.01c0,.007,0,.012,0,.019.087.009.144.043.121.146l.012,0c0,.009,0,.019,0,.029l.061.054c-.018,0-.045,0-.051-.013a.1.1,0,0,1-.011-.042l-.019-.016c0-.005,0-.01,0-.015-.1,0-.131-.058-.121-.146m-2,4.87c-.065-.112-.021-.229.119-.33.228.072.3.193.243.387-.141.1-.277.091-.363-.057m.125.8-.04-.064a.169.169,0,0,1,.007-.068c.011-.019.037-.029.056-.043a.694.694,0,0,1,.028.13c0,.014-.033.03-.052.045m1.956-2.113.034-.013-.008.039Z" transform="translate(-94.545 -5.988)" fill="#3c3c3c"/>
    <path id="Path_106" data-name="Path 106" d="M243.517,33.715a.245.245,0,0,1,.189-.29c.043-.3.076-.594.1-.887l-.086.059c-.24-.338-.242-.338-.072-.52.109.031.138.119.182.22.033-.342.066-.676.11-.989-.106-.071-.191-.159-.313-.108-.062-.178-.006-.252.106-.26a1.155,1.155,0,0,1,.258.031q.032-.2.063-.4c0-.04.006-.081.01-.124l.01.005q.147-.912.286-1.826c-.185-.111-.168-.175-.082-.5.056.02.105.038.148.056.337-2.25.637-4.507.88-6.78.024-.218.042-.435.06-.65-.084.027-.117.01-.258-.068.135-.205.16-.238.269-.086.051-.675.082-1.332.138-1.961l-.027.03c-.183-.073-.127-.182-.094-.285l-.012,0-.007-.016-.919-.068c.144-.4.169-.41.745-.359l.175.427.025,0-.005.016.144.024c.019-.189.041-.375.067-.558a.521.521,0,0,1-.152-.243.448.448,0,0,1,.239-.274c.006-.033.011-.066.018-.1-.132-.219-.608-.216-.748-.431-.17-.261-.547-.924-1-1.019-.037-.008-.076-.012-.114-.019l.015.023-.127.042-.061-.086.015-.006c-1.784-.26-4.216.446-5.681.755a5.27,5.27,0,0,0-2.129.616l-.106-.049c.377-1.785.762-4.308,1.879-5.731a.051.051,0,0,1-.009-.028c0-.03.046-.057.071-.085l.015.017a2.6,2.6,0,0,1,2.677-.924l.321-.327-.023-.14c-.135-.153-.4-.058-.6-.278-.349-.369-.466-.671-1.028-.947-.042,0-.082,0-.122-.006l.03.017-.06.048-.117-.069.016-.013a2.532,2.532,0,0,0-.8-.118,7.641,7.641,0,0,0-2.392,1.1c.032.091-.1.119-.169.181a6.509,6.509,0,0,0-1.69,2.758c-.517,2.908-1.37,6.485-.816,9.587.19,1.061-.032,2.3.619,3.347a7.259,7.259,0,0,0,2.539,2.247,7.89,7.89,0,0,0,3.237-.151.161.161,0,0,1-.032-.093l-.026-.007-.005-.015-.231.059a.33.33,0,0,1,.079-.477l.152.417.03-.008c0,.01,0,.019,0,.029l.174.044a.1.1,0,0,0,0,.012,5.368,5.368,0,0,0,1.576-.672c.006-.028.014-.059.023-.1a.526.526,0,0,1,.075.026,2.251,2.251,0,0,0,.6-.612l.035.017a15.093,15.093,0,0,1-.276,2.2,27.215,27.215,0,0,1-.513,3.646h.006c0,.054-.009.109-.012.163h-.018c-.015.094-.03.187-.042.28l-.329,1.66a.615.615,0,0,0,.1.273.1.1,0,0,1,.042-.005.181.181,0,0,1,.056.035l-.068.012,0,0c.267.369.867.6.966.967a.681.681,0,0,0,.314-.028c.033.116.066.231.1.347.381.086.439-.195.854-.081a4.834,4.834,0,0,0,.651-1.736.232.232,0,0,1-.106-.194m1.747-16.5c0,.06.008.121.011.181l-.056,0c0-.056,0-.113,0-.169,0,0,.029-.009.045-.014m-7.2-6.885c.018,0,.04.067.06.1l-.165.089-.07-.141a.715.715,0,0,1,.176-.051m-.812-.694c.006.13.011.241.016.376-.283-.18-.286-.225-.016-.376m-2.127,2.2-.017-.045.047.008Zm-1.179,3.36.031-.044.014.052Zm-.061,1.256c.053-.066.074-.113.1-.114a1.237,1.237,0,0,1,.2.028c0,.021,0,.043,0,.064l-.3.023m1.735-3.409.044.007-.028.038Zm1.223-2.83-.041,0,0-.037c-.067-.043-.1-.1-.014-.238.006.105.01.174.014.238l.028.017c0,.009.01.016.014.024l.358.04c0,.081,0,.122,0,.21-.135-.083-.278-.113-.354-.251m-.787,2.893.01-.042.033.03Zm-.727,1.728.024-.038.011.044Zm-1.545,4.8c-.264-.162-.2-.359-.087-.569.3.075.3.075.282.468l-.2.1m.408-.965c-.092-.139-.092-.139.278-.445.157.079.071.191.026.33l-.3.115m-.019,1.349c.017-.111.079-.182.19-.145a.186.186,0,0,1,.041.171c-.076.1-.162.062-.231-.027m-.7,2.119c-.016,0-.027-.032-.041-.05.019-.012.039-.036.056-.033s.027.033.041.051c-.019.012-.04.036-.056.033m1.845-3.819c-.16-.009-.223-.077-.236-.181-.015-.125-.008-.128.224-.356l.179.248-.167.29m-1.542,3.513.008-.04.029.026Zm-.36,1.005c-.01-.023-.018-.045-.027-.068.008-.021.016-.042.024-.064a.306.306,0,0,1,.049.08c0,.012-.03.034-.046.052m1.615-3.324c-.025-.024-.071-.049-.07-.072a.309.309,0,0,1,.052-.111l.074.075-.055.107m9.944-.24a.809.809,0,0,1,.115.056c-.016.013-.036.042-.047.039a.7.7,0,0,1-.114-.051c.016-.016.036-.047.046-.044m-1.728,3.606.022.012.007.024.09.038-.063.06c-.009-.033-.018-.065-.027-.1l-.023-.01-.006-.026-.079-.043.062-.046.018.089m1.635-5.928-.366,0c.142-.1.142-.1.366,0m-.939,1.406c.152.3.152.3-.091.5l.016.02-.02.012-.01.111.017.016,0,.02c.108.021.1.1.025.259-.012-.128-.019-.2-.025-.259l-.022,0c0-.01,0-.02,0-.031l-.07-.064.08-.047c0-.01,0-.02,0-.03v0l-.21-.257c.012-.2.153-.224.3-.24m0-.983c-.009.125-.017.236-.026.363-.224-.285-.224-.285.026-.363m-.2.655c-.019.01-.039.03-.055.027s-.03-.026-.045-.042c.018-.01.038-.029.055-.027s.03.027.045.042m-.32-.463c-.1.06-.209.1-.312,0,.137-.26.146-.26.312,0m-.306-1.026.014,0c0,.006,0,.013,0,.019l.1.064-.1.052c0,.012,0,.025,0,.038l-.049,0-.046.055c.008-.018.012-.044.025-.05a.07.07,0,0,1,.021,0l.023-.028.027-.014c0-.038,0-.077,0-.116l-.013-.009v-.013c-.064-.014-.143-.013-.181-.053a4.126,4.126,0,0,1-.291-.376c.461.06.467.062.472.43m-.627-.122-.042.013.008-.04Zm-1,.556c.116.083.118.169.013.263-.106-.083-.128-.169-.013-.263m-.178.756-.037-.026.044-.014Zm-3.692-.355c.042.02.083.046.125.07-.018.011-.039.034-.052.03a.757.757,0,0,1-.11-.056c.012-.015.032-.045.037-.043m-.226.435c0,.025,0,.051,0,.088l-.052-.056.05-.033M235.442,19.4l.009-.044.045.031Zm-1.758,5.007c-.175-.076-.23-.184-.189-.342a.19.19,0,0,1,.294.078c.048.084.03.183-.105.264m.836-2.529c.019-.016.041-.046.058-.044a.7.7,0,0,1,.129.042c-.026.029-.058.084-.073.079a.453.453,0,0,1-.114-.077m.012,2-.035-.139.054-.043a.774.774,0,0,1,.034.135c0,.013-.034.031-.053.046m-.088,1.036-.044-.059.064-.116c.013.019.042.044.038.058a.66.66,0,0,1-.058.117m-.225,1.23c-.017,0-.031-.029-.045-.043l.03-.049.066.053c-.017.014-.034.04-.051.039m.571.057-.115-.064c.024-.028.047-.077.073-.079s.073.032.11.05Zm1.962,1.06a.284.284,0,0,1,0-.03l-.1-.057c.11-.072.106-.006.1.057l.02.012.027.046-.048-.028m.048.028h0m1.068-.614c-.067-.018-.074-.049-.017-.073a.08.08,0,0,1,.063.011c.011.006.01.031.015.047-.021.005-.044.02-.062.015m.255-.759.025-.043.011.048Zm-.3,1.369-.061-.028a.583.583,0,0,1,.091-.043c.005,0,.021.029.032.045l-.062.025m.59-1.676.162-.15.076.061c-.019.052-.038.105-.057.157l-.181-.068m1.014,0c-.073-.036-.066-.068.016-.079.02,0,.043.014.064.022,0,.016,0,.043-.012.047a.088.088,0,0,1-.068.01m.2.923-.041-.055a.534.534,0,0,1,.112-.028c.015,0,.031.031.047.047l-.118.035m.574.032,0-.057.032.006Zm1.359-1.393a1.559,1.559,0,0,1-.229.161l-.122-.222a.336.336,0,0,1,.438-.159c.08.115-.034.162-.087.22m-.342-.951a.419.419,0,0,1-.117.259.289.289,0,0,1-.017-.373,1.893,1.893,0,0,0-.407-.26c-.259.193-.565.2-.809.36l-.876.977a4.277,4.277,0,0,1-3.038.628q-.149-.565-.3-1.13c-.009-.086-.017-.177-.026-.271l-.03.009-.045-.043.069-.019c-.013-.146-.028-.3-.044-.464h-.012c0-.033,0-.066,0-.1-.02-.214-.04-.439-.059-.672a.117.117,0,0,1-.048-.051.478.478,0,0,1,.028-.207,12.675,12.675,0,0,1,.118-3.724c.667.358,1.468-.161,2.05-.349l.233-.073a.779.779,0,0,1-.549-.473c-.009-.02.049-.072.077-.108.024,0,.057-.015.072,0,.21.162.419.324.622.494a.037.037,0,0,1,.011.019c.233-.07.5-.148.8-.227l-.308-.169c.214-.032.35-.072.433.135a11.306,11.306,0,0,1,3.824-.56,42.919,42.919,0,0,0-.567,4.435h.012a.261.261,0,0,1-.043.393h-.011c-.017.16-.035.319-.053.475s-.023.291-.025.433a.7.7,0,0,0,.055.085l-.057.03a2.8,2.8,0,0,1-.2,1.161,4.091,4.091,0,0,1-.768-.617M242.368,24c-.057-.017-.114-.036-.171-.056.02-.014.044-.043.062-.039a.7.7,0,0,1,.128.048c-.007.016-.018.047-.019.047m1.915-4.292.242-.023a.243.243,0,0,0,.01-.024l.042-.021c.012-.022.024-.045.038-.065a.312.312,0,0,1,.047.023l-.085.043-.025.043-.027,0c-.036.084-.1.1-.242.023m-1.463,3.564.054-.042a.652.652,0,0,1,.032.12c0,.013-.033.029-.051.043-.012-.041-.024-.081-.035-.122m-.233,1.666a.263.263,0,0,1-.31-.2.276.276,0,0,1,.309-.233c.155.142.127.272,0,.434m.81-1.115-.105-.39c.2-.121.26.012.311.193l-.206.2m.565.985c-.12.043-.172-.031-.189-.14.087-.066.177-.1.241.017a.138.138,0,0,1-.052.123m.2-.525c.009.006-.03.081-.051.139l-.192-.24a1.444,1.444,0,0,1,.243.1m.109-1.865.01.046-.039-.009Zm-.2.833c-.022-.064-.045-.128-.065-.189.085-.069.162-.148.241-.02.064.1.035.136-.176.209m-2.485,6.691.04-.01-.009.036Zm1.29-2.561a.684.684,0,0,0,.073-.281,5.6,5.6,0,0,1,.143-1.3.273.273,0,0,1,.153.3c-.065.458-.156.913-.239,1.37-.115.052-.187.067-.13-.1M241.8,30.71c.017-.01.037-.03.052-.027s.026.029.039.044c-.017.01-.037.031-.052.028s-.026-.029-.038-.045m-.842,2.272c-.088-.058-.093-.145.012-.24l.211.21c-.111.017-.186.054-.223.03m2.4-4.384c-.068.066-.141.144-.243.073a.178.178,0,0,1-.047-.254c.033-.052.108-.077.184-.128l.161.217a.51.51,0,0,1-.054.092m-2.043,4.957.036-.014-.009.04Zm.911-.07.034-.045.014.056Zm-.363,1.034.009-.046.039.031Zm1.929-4.719c.129.01.205,0,.218.02a.58.58,0,0,1,.02.21l-.238-.23m-.807,4.73c0,.011-.034.027-.054.04a.765.765,0,0,1-.038-.13c0-.011.035-.028.054-.043a.919.919,0,0,1,.037.133m.611-1.766a.124.124,0,0,1,.038.11c-.012.034-.064.053-.1.079-.023-.031-.063-.061-.067-.094-.01-.079.071-.138.127-.094m-.786,1.01c-.009-.006.031-.078.054-.135l.186.242a1.445,1.445,0,0,1-.24-.107m-.247.936.4.295c-.32.119-.355.1-.4-.295" transform="translate(-107.713 -3.905)" fill="#3c3c3c"/>
    <path id="Path_107" data-name="Path 107" d="M196.364,25.319c.01-.112.021-.223.033-.333l-.121-.02-.306.224c-.314-.218-.314-.218-.182-.514l.47.12a1.631,1.631,0,0,0,.165-.051,19.6,19.6,0,0,0,.206-2.45,8.547,8.547,0,0,1-1.525-1.177l-.262.009c-.157.043-.24.145-.337.362-.133-.065-.065-.018-.161-.117l-.13.049a1.116,1.116,0,0,1,.073.212c-.066.1-.11.216-.177.314-.077.738-.306,1.53-.394,2.586-.2,2.456-.394,4.483-.505,6.841l-.126,3.565a2.7,2.7,0,0,0,.926.925.233.233,0,0,1,.173.126,3.492,3.492,0,0,1,.415.336l.125.1c.309-.036.386-.239.8-.15.645-1.432.181-3.036.322-4.466q.259-3.245.517-6.49m-2.283-2.41.028-.033.012.043Zm1.083-1.37-.058-.088c.039-.014.081-.042.116-.036s.039.057.059.087l-.117.037m-.306,1.275a.208.208,0,0,1,.022-.3c.134.112.113.211-.022.3m-.718,3.453c-.011-.016-.032-.034-.029-.046s.028-.023.044-.034c.01.016.031.034.029.047s-.028.023-.044.033m.743-1.933c-.025-.012-.04-.084-.03-.12a.109.109,0,0,1,.1-.049c.037.012.064.057.089.093.012.017.01.044.02.1a.538.538,0,0,1-.176-.019m1.448-1.551.029-.039.012.048Zm-1,3.35c.273-.1.389.031.5.233a.393.393,0,0,1-.5-.233m.7,1.04c-.01-.016-.031-.035-.029-.049s.028-.025.043-.038c.01.017.03.035.028.05s-.027.025-.042.037m-.252,1.331c-.012-.017-.04-.041-.037-.049.033-.059.066-.056.083.01,0,.008-.03.025-.047.038m-.1-.494c.152-.193.3.073.424,0-.15.081-.291.119-.424,0m-2.318,6.464a.194.194,0,0,1,.047-.036c.009,0,.024.016.037.025l-.006.044-.078-.033m1.667-3.18c0-.015-.008-.03-.011-.045a.166.166,0,0,1,.062-.012c.019,0,.035.023.053.035l-.1.023" transform="translate(-89.346 -9.73)" fill="#3c3c3c"/>
    <path id="Path_108" data-name="Path 108" d="M138.838,27.607c-.08-.077-.083-.3-.134-.364a3.544,3.544,0,0,0-1.839-.635c.006.026.013.053.021.085l-.091-.1c-.52-.079-1.052-.128-1.474-.155-.005.025-.011.052-.018.082,0-.032-.005-.059-.008-.084-.272-.017-.5-.025-.64-.026a4.606,4.606,0,0,1-1.345.028q.089-2.309.178-4.619a6.877,6.877,0,0,1,1.811-.2l3.887-.324a4.678,4.678,0,0,0,1.592-.223l0,0,.009,0a.963.963,0,0,0,.405-.49c-.737-.438-.958-.854-1.615-1.261-1.219.189-2.563.13-4.01.311a5.987,5.987,0,0,1-2.023.1,5.887,5.887,0,0,0,.063-1.293c-.017.015-.035.027-.044.024a.769.769,0,0,1-.173-.111l.165-.124c.014.022.029.043.044.064a9.966,9.966,0,0,1-.017-2.6l1.685-.3,3.292-.339c.755-.079,1.567.065,2.132-.528,0-.017-1.449-1.26-1.653-1.365-3.124.254-6.506.1-9.138,1.658a3.121,3.121,0,0,0,.725.912c.021-.038.058-.1.142-.237l-.1.275a2.108,2.108,0,0,0,.426.291,9.638,9.638,0,0,0-.1,1.4,3.48,3.48,0,0,1,.146.32c.013.035-.022.087-.046.169l-.089-.05a6.516,6.516,0,0,0,.109.934c.015.076-.179.78-.207,1.112l-.148,4.46c-.024.8-.333,2.216.075,2.752l.845.691a2.517,2.517,0,0,0,.651.644l2.2-.109a17.777,17.777,0,0,1,3.132.105l.972.318c.354.043.564-.216.922-.136l.234-.324c0-.042.009-.083.013-.123-.19-.252-.629-.3-.964-.616m.654-6.786-.033.043-.013-.053Zm-1.406-7.049c.012-.012.047,0,.11,0,0,.168,0,.337.007.506l.022.041c0,.015,0,.03,0,.045.1.138.095.161-.006.505,0-.238,0-.377.006-.505-.006-.01-.012-.018-.021-.029v-.057L138,13.9a.889.889,0,0,1,.09-.128m-.637-.268c.075.123.16.2.161.277,0,.257-.017.514-.03.772a.245.245,0,0,1,.02.02c0,.01.006.02.01.029l.237.043c-.154.082-.206.037-.237-.043l-.033-.006c0-.015,0-.029,0-.044-.03-.029-.064-.056-.069-.088a1.81,1.81,0,0,0-.159-.713c-.021-.035.046-.122.1-.247m-3.066.915c.011.018.034.039.031.052a.712.712,0,0,1-.05.109c-.019-.032-.052-.064-.051-.1s.045-.044.07-.066M131.2,18.588l.008-.044.049.031Zm1.7-3.079.052-.02-.009.054Zm-1.233,3.881c-.046-.018-.067-.1-.1-.153.052-.031.108-.092.153-.084s.078.085.135.155c-.083.039-.15.1-.189.081m1.36-1.142.027-.036.011.044Zm-.249,2.116a.779.779,0,0,1-.054-.174c0-.014.1-.058.109-.049a.859.859,0,0,1,.089.161l-.143.062m.029.563.058-.143.182.231-.24-.087M132.3,27.49l-.018-.009a.1.1,0,0,1,0-.026l-.078-.043c.091-.062.08,0,.078.043l.019.011a.124.124,0,0,1,0,.025l.081.043c-.095.067-.084.007-.081-.043m.8-.051a.165.165,0,0,1-.085-.308c.071-.036.174.06.164.165-.005.054-.055.1-.079.143m1.794-.323.287-.249-.107.324-.179-.074m3.264,1.344-.009-.049.038.008Z" transform="translate(-60.108 -6.066)" fill="#3c3c3c"/>
    <path id="Path_109" data-name="Path 109" d="M177.3,24.246c-.011-.012-.022-.025-.033-.039l.039,0c.16-.929.351-1.882.539-2.829-.027.01-.059.012-.088.02,0-.045-.006-.087-.01-.129l.12-.005c.2-1.029.4-2.047.53-3.01l-.081.072c-.035-.046-.1-.094-.1-.138a.106.106,0,0,1,.148-.1.125.125,0,0,1,.048.042c.163-1.162.573-3.221.048-4.01l-.567-.262c-.37-.325-.635-.661-.977-.967-.309.067-.558.28-.883.24-.206.243.015,1.789-.011,2.281q-.047.431-.094.862l-.542,2.6q-.261,1.368-.521,2.736-.358,2.617-.716,5.234l-.016.035-.107-.049-.6-1.013-.059.021-.041-.06.064-.021c-1.047-1.771-2.077-3.542-3.033-5.35l-.166.073c-.02-.1-.032-.162-.05-.254l.126.009c-.072-.137-.145-.273-.216-.41-.587-1.133-1.354-3.28-2.167-4.189a8.329,8.329,0,0,0-1.877-1.252c-.141.046-.169.235-.305.291-.1.04-.319-.05-.42-.021a14.752,14.752,0,0,1,.307,1.92l.053,0c.015,0,.053.091.039.113a.314.314,0,0,1-.08.078c.006.123.01.246.009.37q-.01.729-.021,1.456c.193.932,0,2.14.217,2.817l-.068.055q-.027.764-.054,1.528.064,1.128.128,2.258a20.622,20.622,0,0,0,.126,3.766,2.8,2.8,0,0,0,.9.9.862.862,0,0,1,.256.04l-.085.084a2.025,2.025,0,0,1,.377.33c.255-.065.367-.219.7-.111.593-.815.318-1.956.307-2.835l-.1-6.644.049-.107c1.3,1.941,2.277,4.13,3.561,6.124.1.156.2.313.292.47a.471.471,0,0,1,.366.085l-.2.195.148.251a.074.074,0,0,1,.028,0,.2.2,0,0,1,.061.036l-.059.017a8.925,8.925,0,0,0,2.632,3.172,1.277,1.277,0,0,1,.834-.133c.842-.641.914-2.87.957-3.786a23.927,23.927,0,0,1,.343-2.855m-.859-5.432c-.059-.036-.054-.071.012-.091.007,0,.025.033.037.051-.017.014-.044.044-.049.039m-10.307-3.892a.134.134,0,0,1-.036,0l-.055.078c-.037-.091.011-.083.055-.078l.015-.022.058-.056-.037.078m-.3,2.3c.083-.074.158-.085.223.022-.082.074-.158.085-.223-.022m1.732-.956c.013,0,.029.029.044.044a.635.635,0,0,1-.117.031c-.013,0-.028-.028-.044-.044a.71.71,0,0,1,.117-.031m-.489.794a.155.155,0,0,1,0-.133c.016-.033.089-.074.1-.064.054.035.119.087.13.142s-.036.127-.064.211a1.051,1.051,0,0,1-.165-.156m-.687,3.106.011-.054.041.037Zm.836-1.009,0-.043.167.012,0,.042-.167-.012m-.539,10.206-.05.038c-.013-.017-.037-.036-.035-.05s.031-.026.047-.039l.038.051m1.055-2.512-.009.049-.044-.033Zm-.619-.68c.018,0,.039.048.059.075-.017.012-.037.037-.048.033a.736.736,0,0,1-.109-.056c.033-.019.064-.051.1-.053m.644-3.673c.011.046.041.1.026.134s-.078.034-.121.05l-.067-.105.163-.079m-1.181-.79c-.011-.018-.033-.038-.03-.052s.031-.026.047-.038c.011.018.033.037.03.052s-.031.025-.047.038m.135.307c-.011-.018-.031-.037-.029-.053s.026-.029.041-.044c.011.018.031.037.028.053s-.026.029-.04.043m1.5-2.033c0-.013,0-.026,0-.04l.157.012,0,.039-.157-.011m1.954,1.723c.006-.035.045-.062.07-.093.014.018.042.04.039.054a.733.733,0,0,1-.049.123c-.023-.03-.065-.061-.061-.085m.616,2.42c-.012-.019-.039-.048-.033-.058.037-.066.069-.06.087.014l-.054.044m2.235,3.914.034-.045.015.055Zm3.137-7.184c.039,0,.093-.024.114-.006a.16.16,0,0,1,.039.12c0,.022-.055.038-.1.068l-.051-.182m-.246.923-.017-.05.05.01Zm-1.252,2.887c-.008-.02-.028-.049-.021-.059s.04-.028.061-.04a.17.17,0,0,1,.005.067c0,.014-.029.022-.045.033m1.234-1.537a.19.19,0,0,1-.06-.037.2.2,0,0,1,.071-.013c.021,0,.039.023.059.035a.216.216,0,0,1-.071.015m2.2-4.353c-.015,0-.026-.028-.04-.044.018-.011.035-.032.051-.03s.028.026.042.04c-.02.013-.039.035-.053.033m-4.02,9.951a.233.233,0,0,1-.325-.029.139.139,0,0,1-.016-.128.217.217,0,0,1,.32-.03.734.734,0,0,1,.074.087c-.033.062-.038.087-.054.1m.535-1.514.038.036-.049.019Zm2.137-4.283c-.082-.112-.115-.216.049-.272.027-.01.1.033.112.067.074.165-.026.2-.162.2m.422-.367c.006-.1.037-.194.161-.191.139,0,.224.069.2.225-.132.1-.257.131-.365-.033m-.762,2.69.033-.042.017.051Zm-.589,4c.016,0,.026.028.038.043-.017.011-.036.032-.05.029s-.025-.029-.037-.045c.017-.01.035-.03.049-.027m.755-2.306-.041-.058.063-.113c.013.019.042.042.038.054a.721.721,0,0,1-.06.116m-1.42,3.617a.721.721,0,0,1-.038-.21c0-.026.095-.071.109-.059a.722.722,0,0,1,.114.147l-.185.123m1.188-1.858-.031.046-.011-.056Z" transform="translate(-76.483 -5.941)" fill="#3c3c3c"/>
    <path id="Path_110" data-name="Path 110" d="M114.263,22.892c-.032.016-.071.025-.085.016-.1-.071-.091-.156,0-.237l0,0c-.029-.081-.059-.161-.088-.242l-.755-2.54a.051.051,0,0,1-.011.02c-.028.033-.082.043-.124.064-.035-.029-.083-.052-.1-.09-.028-.058.061-.145.131-.137a.121.121,0,0,1,.076.046l-.91-3.06a27.658,27.658,0,0,1-1.286-3.956,10.469,10.469,0,0,0,2.009-1.576l.9-1.311a5.832,5.832,0,0,0,.874-3.134c-.039-2.526-1.223-3.739-3.515-5.284L109.819.666,108.812.332,106.687,0l-2.512.137c-.3.037-.648.237-.974.156-.062.087-.128.02-.049.107-1.172.222-3.617.519-4.581,2.031a4.564,4.564,0,0,0,1.662,1.628c.255-.062.37-.22.7-.111.2-.23.133-.364.244-.535a3.141,3.141,0,0,1,2.049-.911l0,3.192a7.339,7.339,0,0,0-.052,2.089q-.1,1.355-.207,2.709c.019,1.046-.273,2.36-.147,3.425.108.918.156,1.874.2,2.837.015.018.041.039.038.051a.407.407,0,0,1-.032.067q.023.514.047,1.03c.014.027.028.056.045.082l-.04.006c0,.048,0,.1.007.145l.078,3.4q-.057.879-.116,1.758c.262.678,1.321.975,1.463,1.407.378.067.372-.219.8-.062a1.56,1.56,0,0,0,.335-.583l-.025.008-.006-.167h.051c0,.038,0,.074,0,.112a5.828,5.828,0,0,0,.092-1.839c-.042-1.312-.071-2.571-.133-3.828-.046-.012-.048-.056-.007-.134-.032-.615-.071-1.231-.125-1.852-.048-.56.176-1.914-.079-2.366l.082-.178.126.016c0-.03.009-.063.012-.1l.091.113a8.678,8.678,0,0,0,3.273-.357l.035.016q.55,1.71,1.1,3.419l.146.3-.042.025c.648,2.2,1.249,4.553,2.028,6.711a2.4,2.4,0,0,1,.312-.312.265.265,0,0,1,.224.317c-.012.17-.046.338-.077.548l-.226.069q.21.545.438,1.068c.2.448.949.875,1.105,1.156.224.08.121.037.262-.009l.241.413a2.189,2.189,0,0,0,.978-.541,29.906,29.906,0,0,0-1.25-3.771M114.1,9.431l-.028.045-.012-.052Zm.79-2.661-.032.047-.014-.055Zm-1.731,3.268c-.007.1-.013.172-.021.293-.09-.13-.126-.211.021-.293M104.734,24.2a.887.887,0,0,1-.134.136.737.737,0,0,1-.08-.113,1.462,1.462,0,0,1,.147-.122c.024.034.075.086.066.1m.582-1.684-.025.033-.01-.041Zm-.666-1.444c.011.017.032.035.03.05s-.027.024-.043.036c-.011-.016-.032-.035-.03-.049s.028-.025.044-.037m-.683,1.026.009.04-.035-.009Zm.582-3.251-.047.036-.034-.049.081.013m-.847.968-.009.051-.037-.033Zm-.487.762a.64.64,0,0,1-.012-.558c.148.21.069.365.012.558m9.719-15.95c.01.017.03.035.027.049s-.027.024-.042.036c-.01-.016-.03-.035-.027-.048s.027-.024.042-.037m-.811-1.408.015.044-.044-.009ZM107.461,1.5a.69.69,0,0,1,.118.056l-.01.031-.166-.05c.02-.013.044-.041.058-.037m-1.7-.6-.24-.229c.184-.209.261-.24.35-.143.115.123.038.223-.11.372M104.554,4.33c-.015,0-.039,0-.041-.008a.1.1,0,0,1-.005-.066c.033-.073.063-.068.071.011,0,.02-.016.042-.025.063m-.782,3.933a.512.512,0,0,1,.071-.551c.229,0,.257.175.294.361l-.365.19M104.9,5.248c.166.1.289.172.153.344-.174-.026-.211-.134-.153-.344m-1.662,6.294c-.011-.015-.038-.04-.034-.05.033-.065.066-.061.083.01,0,.009-.032.026-.049.04m2.253-1.476-.042-.053a.762.762,0,0,1,.121-.033c.012,0,.028.029.042.046l-.12.04m-1.064,3.641c.172-.174.327-.26.52-.109,0,.229-.129.349-.328.492l-.192-.382m.316,1.8-.063-.044,0-.016a.267.267,0,0,1-.292-.164.875.875,0,0,1,0-.844c.065-.005.134-.03.154-.009.064.068.173.177.154.23-.1.265.05.529-.016.788a.13.13,0,0,0,.015,0l.046.059m1.2-1.8c0-.064,0-.122,0-.18.036.009.083.008.105.031a.343.343,0,0,1,.048.115l-.158.033m.509-.176a.209.209,0,0,1-.015-.32l.153.062-.138.258m2.073-2.122c-.788.409-1.962.256-2.92.467l-.142-.065c.226-.209.141-1.446.164-1.865.112-2.015.077-3.765.009-5.473-.03-.765.394-1.857-.15-2.4l.016-.035a5.323,5.323,0,0,1,2.355-.121.375.375,0,0,1-.011-.146c.07-.079.15-.133.234-.031a.165.165,0,0,1,.017.207c.388.054.763.123,1.1.194l1.236.4,1.3.728c1.854,2.824-.891,6.941-3.206,8.141m1.76.257a.647.647,0,0,1,.048-.111l.027.009-.047.156c-.011-.018-.032-.039-.028-.053m-.365,1.1.009-.053.04.033Zm.648-1.036.053-.019-.01.055Zm1.051-2.37a.359.359,0,0,1,.067-.1c.012.018.037.037.034.053a.589.589,0,0,1-.034.112c-.025-.024-.071-.052-.067-.067m2.11-2.963c-.116.02-.143-.066-.16-.157.087-.074.164-.072.2.042.011.031-.021.111-.044.115m-2.869,9.96-.31-.139c0-.125,0-.24.006-.371.3-.156.433-.059.53.2l-.227.308m-.153,2.03a.238.238,0,0,1,.247-.19.131.131,0,0,1,0-.019l.037,0,.045-.045c-.007.014-.011.035-.022.04a.08.08,0,0,1-.023,0l-.021.021h-.012a.114.114,0,0,1,.006.051c-.042.208-.043.208-.254.139m1.961,4.8a.216.216,0,0,1-.174.072c-.046-.009-.076-.091-.129-.162.073-.045.121-.1.174-.1.089-.009.18.129.129.191m.676,2.373.008-.049.048.033Zm1.009.5c.138.037.265.026.358.18-.141.157-.27.246-.455.173-.014-.042-.049-.092-.037-.121a1.847,1.847,0,0,1,.134-.231" transform="translate(-45.611 0)" fill="#3c3c3c"/>
    <path id="Path_111" data-name="Path 111" d="M155.459,19.351c-.081-.621.053-1.273.023-1.93-.068-1.507-.04-2.666.021-4.088.036-.838.462-4,.025-4.473a.6.6,0,0,1,.2-.1.716.716,0,0,0-.062-.181c.07-.128.122-.274.307-.269a1.015,1.015,0,0,1,.085.4c.294-.011.62.036.864.017l.073-.006c.007-.093.013-.188.021-.289l.2.093-.1.185c1.245-.1,2.523-.257,3.716-.466L161,7.973l.013-.123c-.6-.374-1.134-.9-1.615-1.261-2.524.116-5.059.225-7.514.551l-1.988.12c-.681.125-1.35.454-2.009.541l-.049.107c.192.631.948.908,1.324,1.428a3.96,3.96,0,0,0,1.342-.026c-.019-.025-.038-.044-.035-.058s.033-.026.052-.039c0,.029,0,.058-.008.1.946-.117,2.084-.335,2.6-.351q-.114,2.109-.228,4.218a.187.187,0,0,1,.17.131.253.253,0,0,1-.183.273l-.009,0q-.048.889-.1,1.777a12.917,12.917,0,0,1-.023,2.965q.07,2.1.141,4.2.074,1.436.149,2.871a.55.55,0,0,0,.29.283c0-.017.011-.033.016-.05a.258.258,0,0,1,.041.078.733.733,0,0,1,.262.142,7.043,7.043,0,0,0,.979,1.054c.3-.013.4-.231.8-.149.49-.885.089-3.372-.008-4.4Zm3.667-12.493c0,.01,0,.02,0,.03l-.171-.023c0-.01,0-.019,0-.03l.171.023m-.461-.046,0,.049-.418-.031,0-.049.42.031m-4.219,1.682.039-.016-.009.044Zm.42-.506a.32.32,0,0,1-.395-.18l.169-.292.347.222c.045.166-.021.226-.121.25m.363.444-.037-.054.1.008-.063.047m-.6,3.063a.79.79,0,0,1-.107-.2c0-.032.045-.073.07-.111.05.035.129.062.143.108s-.051.1-.106.2m-.523,7.73a.688.688,0,0,1-.114-.058l.011-.031.158.052c-.019.013-.042.042-.055.037m.988-2.4c.146.145.146.145.111.327-.213-.154-.213-.154-.111-.327m-.98,6.608.01-.038.03.028Zm-.067.9-.016-.045.048.011Zm1.158.295a.91.91,0,0,1,.084.106,1.445,1.445,0,0,1-.17.1.248.248,0,0,1-.061-.09.649.649,0,0,1,.147-.115m-.941,1.64a.274.274,0,0,1,.091.108.355.355,0,0,1,.02.1.485.485,0,0,1-.181-.019c-.028-.015-.039-.092-.03-.134a.113.113,0,0,1,.1-.052" transform="translate(-68.41 -3.036)" fill="#3c3c3c"/>
  </g>
</svg>
