<svg id="Oslo-logo-sort-RGB" xmlns="http://www.w3.org/2000/svg" width="150" height="77.127" viewBox="0 0 150 77.127">
  <path id="Path_55" data-name="Path 55" d="M137.15,95.728l-1.05-.651a30.993,30.993,0,0,0-5.1-2.7h0c-.75-.3-1.5-.6-2.25-.851a36.036,36.036,0,0,0-5.55-1.4c-.8-.1-1.6-.2-2.45-.3a36.732,36.732,0,0,0-5.75,0,20.445,20.445,0,0,0-2.45.3,31.6,31.6,0,0,0-5.6,1.4c-.75.25-1.5.551-2.25.851h0a35.622,35.622,0,0,0-5.1,2.7l-1.05.651L93.4,85.862l.9-.551a39.867,39.867,0,0,1,5.4-2.855l.95-.451,1.85,3.556c.55-.2,1.05-.4,1.6-.6l-.95-3.906,1-.351a48.289,48.289,0,0,1,5.9-1.452l1.05-.2.95,3.906.3-.05c.45-.05.95-.1,1.4-.15V78.75l1.05-.05c1-.05,2.05-.1,3.05-.1s2.05.05,3.05.1l1.05.05v4.007c.55.05,1.1.1,1.7.2l.95-3.906,1.05.2a46.132,46.132,0,0,1,5.9,1.452l1,.351-.95,3.906c.55.2,1.05.4,1.6.6l1.85-3.556.95.451a55.6,55.6,0,0,1,5.4,2.855l.9.551ZM96.4,86.713l3.05,5.81a35.443,35.443,0,0,1,4.35-2.2h.05a23.38,23.38,0,0,1,2.4-.9,35.712,35.712,0,0,1,5.95-1.5,21.711,21.711,0,0,1,2.6-.3,42.01,42.01,0,0,1,6.15,0c.85.1,1.75.2,2.6.3a35.543,35.543,0,0,1,5.95,1.452l2.4.9h0c1.5.651,2.95,1.4,4.4,2.2l3.05-5.81c-1.05-.6-2.15-1.2-3.25-1.7l-1.85,3.506-.95-.4-.4-.15a29.712,29.712,0,0,0-2.95-1.1l-1-.351.95-3.856c-1.2-.351-2.35-.651-3.55-.9l-.95,3.856-1.05-.15c-1.2-.2-2.4-.351-3.55-.451l-1.05-.1V80.9c-1.2-.05-2.45-.05-3.65,0V84.86l-1.05.1c-.8.05-1.55.15-2.3.25a10.811,10.811,0,0,0-1.25.2l-1.05.15-.95-3.856c-1.2.25-2.4.551-3.55.9l.95,3.856-1,.351c-1,.351-2,.7-2.95,1.1l-.4.15-.95.4L99.75,84.96a23.546,23.546,0,0,0-3.35,1.753Z" transform="translate(-86 -78.6)" fill="#2c2c2c"/>
  <path id="Path_56" data-name="Path 56" d="M110.45,169.055a31.779,31.779,0,1,1,22.5-9.315A31.853,31.853,0,0,1,110.45,169.055Zm0-61.4a29.558,29.558,0,1,0,20.8,8.664,29.053,29.053,0,0,0-20.8-8.664Z" transform="translate(-78.6 -91.928)" fill="#2c2c2c"/>
  <path id="Path_57" data-name="Path 57" d="M126.45,136.573a7.615,7.615,0,1,1,12.2,0l1.7,1.252a9.7,9.7,0,1,0-15.5,0Z" transform="translate(-100.75 -100.414)" fill="#2c2c2c"/>
  <path id="Path_58" data-name="Path 58" d="M137.15,143.769a3.8,3.8,0,0,0,3.8-3.806v-.4h1.25v-2.4a5.05,5.05,0,1,0-10.1,0v2.4h1.25v.4A3.8,3.8,0,0,0,137.15,143.769Zm-2.95-6.561a2.95,2.95,0,1,1,5.9,0h0v2.4h-.9v.4a2.052,2.052,0,1,1-4.1.2v-.6h-.9Z" transform="translate(-105.35 -105.306)" fill="#2c2c2c"/>
  <rect id="Rectangle_364" data-name="Rectangle 364" width="2.9" height="2.955" transform="translate(10.1 46.677)" fill="#2a2958"/>
  <path id="Path_59" data-name="Path 59" d="M138,162.208v1.553h1.5l-4.05,4.057v-7.112l1.05,1.052,1.1-1.1-2.95-2.955-2.95,2.955,1.1,1.1,1.05-1.052v7.062l-4.05-4.057h1.45v-1.553H127.1v4.207h1.55v-1.5l3.15,3.205h-6.4l-.65-.6-.55-5.209a5.488,5.488,0,0,0-2.55-4.107h-.05l-2.25-.9-.35-.15-.35.1a15,15,0,0,1-4.2.451,14.808,14.808,0,0,1-4.2-.451l-.35-.1-2.6,1h-.05a5.331,5.331,0,0,0-2.55,4.107l-.6,5.409-.5.4h-2.2a7.637,7.637,0,0,0,.3-2.1,7.5,7.5,0,1,0-8.65,7.512h.1a2.431,2.431,0,0,0,.6.05l9.75,1a54.488,54.488,0,0,1-1.95,9.766l1,.351,1,.3a55.73,55.73,0,0,0,2.05-10.267l2.2-1.853-.35,13.622.9.15a37.106,37.106,0,0,0,12.45,0l.9-.15-.35-13.572,2.2,1.853a55.734,55.734,0,0,0,2.05,10.267l2-.651a54.489,54.489,0,0,1-1.95-9.766l9.8-.9v-3.406l5.2-5.209v1.5h1.55v-4.157Zm-23.55-2.4a19.61,19.61,0,0,0,4.5-.451l1.8.7a3.438,3.438,0,0,1,1.4,2.4l.45,4.107h-2.55a5.392,5.392,0,0,1-2.9-.8,9.4,9.4,0,0,1-1.75-1.7l-3.6-4.407a24.18,24.18,0,0,0,2.65.15ZM94.2,171.373h-.25l-.55-.05a5.426,5.426,0,1,1,6.2-4.507,5.521,5.521,0,0,1-5.4,4.557Zm13.65-1.452-3,2.554-6-.6a8.615,8.615,0,0,0,1.6-1.7h3.95l3.5-2.955Zm.15-5.509h0l-1.55,1.3.35-3.205v-.05a3.246,3.246,0,0,1,1.4-2.4l1-.4,1.8,2.2Zm6.5,20.534a31.8,31.8,0,0,1-4.9-.351l.1-4.457h0l.35-14.724,2.25-1.9,1.5,1.853a10.655,10.655,0,0,0,2.3,2.2,7.955,7.955,0,0,0,3,1.052l.4,15.976c-1.65.2-3.35.3-5,.351Zm18.85-13.322-9.05.851-4.5-3.806h3.3l1.7,1.5h8.6Z" transform="translate(-82.649 -117.785)" fill="#2c2c2c"/>
  <path id="Path_60" data-name="Path 60" d="M241.5,153.621c0-7.763,4.9-12.521,10.9-12.521s10.9,4.758,10.9,12.521c0,8.063-4.9,12.871-10.9,12.871S241.5,161.684,241.5,153.621Zm18.7,0c0-6.711-3.45-9.716-7.8-9.716s-7.8,3-7.8,9.716,3.6,10.067,7.8,10.067S260.2,160.332,260.2,153.621Z" transform="translate(-160.05 -109.799)" fill="#2c2c2c"/>
  <path id="Path_61" data-name="Path 61" d="M298.5,155.1c3.3,0,5.7,1.452,6.6,3.806l-2.2,1.1a4.67,4.67,0,0,0-4.5-2.454c-2.25,0-3.8.9-3.8,2.4,0,1.3.85,2.053,2.75,2.5l2.55.5c3.85.751,5.7,2.5,5.7,5.158,0,3.205-2.8,5.359-6.95,5.359-3.6,0-6.2-1.4-7.45-4.007l2.2-1.152c.9,1.753,2.65,2.755,5.15,2.755s4.25-1.1,4.25-2.8c0-1.452-.85-2.3-2.9-2.7l-3.05-.6c-3.3-.651-5.05-2.354-5.05-4.808C291.85,157.254,294.6,155.1,298.5,155.1Z" transform="translate(-184.9 -116.787)" fill="#2c2c2c"/>
  <path id="Path_62" data-name="Path 62" d="M333.25,166.741c-3,0-4.45-1.853-4.45-4.708V141.8h2.9v20.133a2.047,2.047,0,0,0,2.25,2.3,3.8,3.8,0,0,0,1.05-.15v2.5C334.45,166.641,333.85,166.741,333.25,166.741Z" transform="translate(-203.7 -110.148)" fill="#2c2c2c"/>
  <path id="Path_63" data-name="Path 63" d="M346.1,164.265c0-5.559,3.6-9.165,8.15-9.165s8.1,3.606,8.1,9.165c0,5.609-3.65,9.265-8.1,9.265S346.1,169.874,346.1,164.265Zm13.25,0c0-4.507-2.35-6.661-5.1-6.661s-5.15,2.1-5.15,6.661,2.3,6.761,5.15,6.761S359.35,168.772,359.35,164.265Z" transform="translate(-212.35 -116.787)" fill="#2c2c2c"/>
</svg>
