<svg id="Group_200" data-name="Group 200" xmlns="http://www.w3.org/2000/svg" xmlns:xlink="http://www.w3.org/1999/xlink" width="55" height="55" viewBox="0 0 55 55">
  <defs>
    <clipPath id="clip-path">
      <rect id="Rectangle_425" data-name="Rectangle 425" width="55" height="55" fill="#fff"/>
    </clipPath>
  </defs>
  <g id="Group_199" data-name="Group 199">
    <path id="Path_1158" data-name="Path 1158" d="M27.5,0A27.5,27.5,0,1,0,55,27.5,27.5,27.5,0,0,0,27.5,0M37.829,29.793v9.369a1.177,1.177,0,0,1-1.162,1.162h-19.2a1.177,1.177,0,0,1-1.162-1.162V28.755A8.24,8.24,0,0,1,13.459,23.6l0-.107a3.358,3.358,0,0,1-.1-.782V22a10.231,10.231,0,0,1,.106-1.234l.049-.161a2.12,2.12,0,0,1,.074-.342l.306-.917c.028-.086.057-.157.086-.23.022-.054.044-.11.066-.177a11.134,11.134,0,0,1,.6-1.16,1.528,1.528,0,0,1,.135-.2l.069-.1a5.043,5.043,0,0,1,.844-1.074,8.849,8.849,0,0,1,1.349-1.131l.18-.084a8.269,8.269,0,0,1,4.478-1.325,7.445,7.445,0,0,1,1.553.159,1.032,1.032,0,0,1,.184.045l.1.026a.418.418,0,0,0,.071.019,10.61,10.61,0,0,1,15.482-.4,10.68,10.68,0,0,1-1.257,16.082" fill="#fff"/>
    <rect id="Rectangle_424" data-name="Rectangle 424" width="16.875" height="2.667" transform="translate(18.63 35.333)" fill="#fff"/>
    <path id="Path_1159" data-name="Path 1159" d="M31.421,12.773a8.215,8.215,0,0,0-5.582,2.182,7.914,7.914,0,0,1,1.709,1.294,1.149,1.149,0,0,1-1.624,1.625A5.608,5.608,0,0,0,23,16.231a.858.858,0,0,1-.185-.046,8.981,8.981,0,0,0-1.167-.1,6,6,0,0,0-5.127,2.872l-.129.263c-.041.1-.1.223-.16.348a4.291,4.291,0,0,0-.265.636l-.041.138a1.224,1.224,0,0,1-.094.3c-.048.2-.094.528-.139.848l-.017.119a.928.928,0,0,0-.046.337,5.792,5.792,0,0,0,.044.885,6.291,6.291,0,0,0,2.5,4.416,1.352,1.352,0,0,1,.458.963v4.8H35.555V29.181a1.146,1.146,0,0,1,.552-.992,8.054,8.054,0,0,0,3.676-7.038,8.376,8.376,0,0,0-8.362-8.378" fill="#fff"/>
  </g>
</svg>
